<svg xmlns="http://www.w3.org/2000/svg" viewBox="0 0 500 500"><g id="freepik--background-complete--inject-11"><path d="M278.3,240.48c5.28,0,137-.91,174.15-.91,2.6,0-.69-4.51-2.12-4.82-4.57-1-9.34-1.06-14-1.54A45.41,45.41,0,0,1,423,229.87c-3.66-1.54-7.32-3.33-11.28-4-7.66-1.2-14.38,3-21.57,4.79a16.27,16.27,0,0,1-13.07-1.79c-3.32-2-6.34-4.38-9.81-6.14a53.86,53.86,0,0,0-43-2,49.73,49.73,0,0,0-9.41,4.82c-3.51,2.3-6.54,5.24-10.06,7.52-7.8,5-17.44,3.4-26,6.3C278.37,239.6,277.84,240.48,278.3,240.48Z" style="fill:#ebebeb"></path><path d="M306.31,69.64c7,0,124.38.77,131.76.53.53,0,.81-.79.29-1-4.66-2.31-9.93-1.84-14.76-3.47-2.85-1-4.59-2.82-6.57-5a13.53,13.53,0,0,0-6.11-4,12.83,12.83,0,0,0-6.65-.21c-2.38.57-4.45,1.93-6.72,2.79-5.64,2.13-11.12.11-15.15-4.07-3.32-3.44-6.58-6.68-11.1-8.53a14.71,14.71,0,0,0-11.76-.17c-4.31,1.95-7.26,5.88-11.31,8.24-4.79,2.8-10.52,2.14-15.82,3s-9.36,5.31-14,7.88a9.83,9.83,0,0,1-5.06,1.56,28.88,28.88,0,0,1-3.08-.43c-1.6-.2-3.12-.15-4.2,1.18C305.8,68.26,305.86,69.64,306.31,69.64Z" style="fill:#ebebeb"></path><path d="M46.88,108.69c5.09,0,90.8.57,96.19.4a.42.42,0,0,0,.21-.78c-3.4-1.68-7.25-1.34-10.78-2.53-2.07-.7-3.35-2.06-4.79-3.61a9.87,9.87,0,0,0-4.46-2.91,9.43,9.43,0,0,0-4.86-.16,41.15,41.15,0,0,0-4.9,2c-4.12,1.56-8.12.08-11.06-3-2.43-2.51-4.81-4.88-8.11-6.23a10.72,10.72,0,0,0-8.58-.12c-3.15,1.42-5.31,4.29-8.26,6-3.5,2-7.69,1.56-11.55,2.18s-6.84,3.87-10.23,5.75A7.18,7.18,0,0,1,52,106.9c-.75,0-1.5-.22-2.25-.31a3.08,3.08,0,0,0-3.06.86C46.5,107.69,46.54,108.69,46.88,108.69Z" style="fill:#ebebeb"></path><path d="M68.64,216c5.09,0,90.8.57,96.19.4a.42.42,0,0,0,.21-.78c-3.4-1.68-7.25-1.34-10.78-2.53-2.07-.7-3.35-2.06-4.79-3.61A9.87,9.87,0,0,0,145,206.6a9.43,9.43,0,0,0-4.86-.16,41.15,41.15,0,0,0-4.9,2c-4.12,1.56-8.12.08-11.06-3-2.43-2.51-4.81-4.88-8.11-6.23a10.72,10.72,0,0,0-8.58-.12c-3.15,1.42-5.31,4.29-8.26,6-3.5,2.05-7.69,1.56-11.55,2.18s-6.84,3.87-10.23,5.75a7.18,7.18,0,0,1-3.7,1.14c-.75,0-1.5-.22-2.25-.31a3.08,3.08,0,0,0-3.06.86C68.26,215,68.3,216,68.64,216Z" style="fill:#ebebeb"></path><path d="M148,186.79c.1.29,135.09,0,133.39,0-.78,0,1.18-1.16.42-1.54-4.4-2.18-9.2-2.24-14-2.68a21.51,21.51,0,0,1-8.17-2c-2.54-1.33-4.13-3.65-5.94-5.78a25.36,25.36,0,0,0-23-8.74c-9.6,1.51-17.16,8.82-26.78,10.16-5.78.81-11.24-1.42-16.88-2.21a20.63,20.63,0,0,0-12.68,2.32c-3,1.51-5.86,2.78-9.3,3-2.64.19-5.3-.11-7.95-.14a17.82,17.82,0,0,0-11.69,4.67C145,184.26,143.61,186.79,148,186.79Z" style="fill:#ebebeb"></path><polygon points="454.23 259.22 454.23 376.54 217.35 376.54 217.35 280.94 237.9 280.94 237.9 305.9 243.19 305.9 243.19 262.29 269.32 262.29 269.32 303.68 272.78 303.68 272.78 251.18 295.49 251.18 295.49 265.59 307.13 265.59 307.13 283.52 310.66 283.52 310.66 272.24 331.31 272.24 331.31 305.89 337.34 305.89 337.34 278.54 356.23 278.54 356.23 257.76 369.06 257.76 369.06 245.93 383.92 245.93 383.92 298.41 388.92 298.41 388.92 276.51 413.38 276.51 413.38 307.86 416.76 307.86 416.76 282.27 441.58 282.27 441.58 259.22 454.23 259.22" style="fill:#dbdbdb"></polygon><rect x="219.87" y="284.08" width="3.48" height="4.77" style="fill:#fff"></rect><rect x="225.89" y="284.08" width="3.48" height="4.77" style="fill:#fff"></rect><rect x="231.92" y="284.08" width="3.48" height="4.77" style="fill:#fff"></rect><rect x="219.87" y="291.26" width="3.48" height="4.77" style="fill:#fff"></rect><rect x="225.89" y="291.26" width="3.48" height="4.77" style="fill:#fff"></rect><rect x="231.92" y="291.26" width="3.48" height="4.77" style="fill:#fff"></rect><rect x="219.87" y="298.44" width="3.48" height="4.77" style="fill:#fff"></rect><rect x="225.89" y="298.44" width="3.48" height="4.77" style="fill:#fff"></rect><rect x="231.92" y="298.44" width="3.48" height="4.77" style="fill:#fff"></rect><rect x="219.87" y="305.62" width="3.48" height="4.77" style="fill:#fff"></rect><rect x="225.89" y="305.62" width="3.48" height="4.77" style="fill:#fff"></rect><rect x="231.92" y="305.62" width="3.48" height="4.77" style="fill:#fff"></rect><rect x="340.25" y="281.95" width="3.48" height="3.98" style="fill:#fff"></rect><rect x="346.27" y="281.95" width="3.48" height="3.98" style="fill:#fff"></rect><rect x="352.3" y="281.95" width="3.48" height="3.98" style="fill:#fff"></rect><rect x="340.25" y="287.94" width="3.48" height="3.98" style="fill:#fff"></rect><rect x="346.27" y="287.94" width="3.48" height="3.98" style="fill:#fff"></rect><rect x="352.3" y="287.94" width="3.48" height="3.98" style="fill:#fff"></rect><rect x="340.25" y="293.93" width="3.48" height="3.98" style="fill:#fff"></rect><rect x="346.27" y="293.93" width="3.48" height="3.98" style="fill:#fff"></rect><rect x="352.3" y="293.93" width="3.48" height="3.98" style="fill:#fff"></rect><rect x="340.25" y="299.92" width="3.48" height="3.98" style="fill:#fff"></rect><rect x="346.27" y="299.92" width="3.48" height="3.98" style="fill:#fff"></rect><rect x="352.3" y="299.92" width="3.48" height="3.98" style="fill:#fff"></rect><rect x="340.25" y="306.05" width="3.48" height="3.98" style="fill:#fff"></rect><rect x="346.27" y="306.05" width="3.48" height="3.98" style="fill:#fff"></rect><rect x="352.3" y="306.05" width="3.48" height="3.98" style="fill:#fff"></rect><rect x="340.25" y="312.19" width="3.48" height="3.98" style="fill:#fff"></rect><rect x="346.27" y="312.19" width="3.48" height="3.98" style="fill:#fff"></rect><rect x="352.3" y="312.19" width="3.48" height="3.98" style="fill:#fff"></rect><rect x="340.25" y="318.33" width="3.48" height="3.98" style="fill:#fff"></rect><rect x="346.27" y="318.33" width="3.48" height="3.98" style="fill:#fff"></rect><rect x="352.3" y="318.33" width="3.48" height="3.98" style="fill:#fff"></rect><rect x="340.25" y="324.47" width="3.48" height="3.98" style="fill:#fff"></rect><rect x="346.27" y="324.47" width="3.48" height="3.98" style="fill:#fff"></rect><rect x="352.3" y="324.47" width="3.48" height="3.98" style="fill:#fff"></rect><rect x="246.15" y="265.34" width="20.02" height="2.98" style="fill:#fff"></rect><rect x="246.15" y="271.13" width="20.02" height="2.98" style="fill:#fff"></rect><rect x="246.15" y="276.92" width="20.02" height="2.98" style="fill:#fff"></rect><rect x="246.15" y="282.71" width="20.02" height="2.98" style="fill:#fff"></rect><rect x="246.15" y="288.5" width="20.02" height="2.98" style="fill:#fff"></rect><rect x="246.15" y="294.29" width="20.02" height="2.98" style="fill:#fff"></rect><rect x="246.15" y="300.08" width="20.02" height="2.98" style="fill:#fff"></rect><rect x="246.15" y="305.87" width="20.02" height="2.98" style="fill:#fff"></rect><rect x="391.87" y="279.29" width="18.4" height="2.98" style="fill:#fff"></rect><rect x="391.87" y="285.08" width="18.4" height="2.98" style="fill:#fff"></rect><rect x="391.87" y="290.87" width="18.4" height="2.98" style="fill:#fff"></rect><rect x="391.87" y="296.66" width="18.4" height="2.98" style="fill:#fff"></rect><rect x="391.87" y="302.45" width="18.4" height="2.98" style="fill:#fff"></rect><rect x="391.87" y="308.24" width="18.4" height="2.98" style="fill:#fff"></rect><rect x="391.87" y="314.03" width="18.4" height="2.98" style="fill:#fff"></rect><rect x="391.87" y="319.82" width="18.4" height="2.98" style="fill:#fff"></rect><rect x="391.87" y="325.33" width="18.4" height="2.98" style="fill:#fff"></rect><rect x="391.87" y="330.83" width="18.4" height="2.98" style="fill:#fff"></rect><rect x="391.87" y="336.33" width="18.4" height="2.98" style="fill:#fff"></rect><rect x="391.87" y="341.83" width="18.4" height="2.98" style="fill:#fff"></rect><rect x="391.87" y="347.33" width="18.4" height="2.98" style="fill:#fff"></rect><rect x="420.59" y="286.29" width="19.44" height="2.98" style="fill:#fff"></rect><rect x="420.59" y="292.08" width="19.44" height="2.98" style="fill:#fff"></rect><rect x="420.59" y="297.87" width="19.44" height="2.98" style="fill:#fff"></rect><rect x="420.59" y="303.66" width="19.44" height="2.98" style="fill:#fff"></rect><rect x="420.59" y="309.45" width="19.44" height="2.98" style="fill:#fff"></rect><rect x="420.59" y="315.24" width="19.44" height="2.98" style="fill:#fff"></rect><rect x="420.59" y="321.03" width="19.44" height="2.98" style="fill:#fff"></rect><rect x="420.59" y="326.82" width="19.44" height="2.98" style="fill:#fff"></rect><rect x="420.59" y="332" width="19.44" height="2.98" style="fill:#fff"></rect><rect x="420.59" y="337.18" width="19.44" height="2.98" style="fill:#fff"></rect><rect x="420.59" y="342.36" width="19.44" height="2.98" style="fill:#fff"></rect><rect x="316.7" y="274.95" width="6.18" height="2.88" style="fill:#fff"></rect><rect x="316.7" y="280.54" width="6.18" height="2.88" style="fill:#fff"></rect><rect x="316.7" y="286.13" width="6.18" height="2.88" style="fill:#fff"></rect><rect x="316.7" y="291.72" width="6.18" height="2.88" style="fill:#fff"></rect><rect x="316.7" y="297.31" width="6.18" height="2.88" style="fill:#fff"></rect><rect x="316.7" y="302.9" width="6.18" height="2.88" style="fill:#fff"></rect><rect x="316.7" y="308.5" width="6.18" height="2.88" style="fill:#fff"></rect><rect x="316.7" y="314.09" width="6.18" height="2.88" style="fill:#fff"></rect><rect x="325.11" y="274.95" width="6.18" height="2.88" style="fill:#fff"></rect><rect x="325.11" y="280.54" width="6.18" height="2.88" style="fill:#fff"></rect><rect x="325.11" y="286.13" width="6.18" height="2.88" style="fill:#fff"></rect><rect x="325.11" y="291.72" width="6.18" height="2.88" style="fill:#fff"></rect><rect x="325.11" y="297.31" width="6.18" height="2.88" style="fill:#fff"></rect><rect x="325.11" y="302.9" width="6.18" height="2.88" style="fill:#fff"></rect><rect x="325.11" y="308.5" width="6.18" height="2.88" style="fill:#fff"></rect><rect x="325.11" y="314.09" width="6.18" height="2.88" style="fill:#fff"></rect><rect x="276.22" y="254.2" width="6.44" height="4.54" style="fill:#fff"></rect><rect x="285.82" y="254.2" width="6.44" height="4.54" style="fill:#fff"></rect><rect x="276.22" y="260.88" width="6.44" height="4.54" style="fill:#fff"></rect><rect x="285.82" y="260.88" width="6.44" height="4.54" style="fill:#fff"></rect><rect x="276.22" y="267.55" width="6.44" height="4.54" style="fill:#fff"></rect><rect x="285.82" y="267.55" width="6.44" height="4.54" style="fill:#fff"></rect><rect x="276.22" y="274.23" width="6.44" height="4.54" style="fill:#fff"></rect><rect x="285.82" y="274.23" width="6.44" height="4.54" style="fill:#fff"></rect><rect x="276.22" y="280.91" width="6.44" height="4.54" style="fill:#fff"></rect><rect x="285.82" y="280.91" width="6.44" height="4.54" style="fill:#fff"></rect><rect x="276.22" y="287.58" width="6.44" height="4.54" style="fill:#fff"></rect><rect x="285.82" y="287.58" width="6.44" height="4.54" style="fill:#fff"></rect><rect x="276.22" y="294.26" width="6.44" height="4.54" style="fill:#fff"></rect><rect x="285.82" y="294.26" width="6.44" height="4.54" style="fill:#fff"></rect><rect x="276.22" y="300.93" width="6.44" height="4.54" style="fill:#fff"></rect><rect x="285.82" y="300.93" width="6.44" height="4.54" style="fill:#fff"></rect><rect x="297.72" y="267.55" width="6.44" height="4.54" style="fill:#fff"></rect><rect x="297.72" y="274.23" width="6.44" height="4.54" style="fill:#fff"></rect><rect x="297.72" y="280.91" width="6.44" height="4.54" style="fill:#fff"></rect><rect x="297.72" y="287.58" width="6.44" height="4.54" style="fill:#fff"></rect><rect x="297.72" y="294.26" width="6.44" height="4.54" style="fill:#fff"></rect><rect x="297.72" y="300.93" width="6.44" height="4.54" style="fill:#fff"></rect><rect x="276.22" y="307.53" width="6.44" height="4.54" style="fill:#fff"></rect><rect x="285.82" y="307.53" width="6.44" height="4.54" style="fill:#fff"></rect><rect x="297.72" y="307.53" width="6.44" height="4.54" style="fill:#fff"></rect><rect x="276.22" y="314.13" width="6.44" height="4.54" style="fill:#fff"></rect><rect x="285.82" y="314.13" width="6.44" height="4.54" style="fill:#fff"></rect><rect x="297.72" y="314.13" width="6.44" height="4.54" style="fill:#fff"></rect><rect x="276.22" y="320.72" width="6.44" height="4.54" style="fill:#fff"></rect><rect x="285.82" y="320.72" width="6.44" height="4.54" style="fill:#fff"></rect><rect x="297.72" y="320.72" width="6.44" height="4.54" style="fill:#fff"></rect><rect x="276.22" y="327.32" width="6.44" height="4.54" style="fill:#fff"></rect><rect x="285.82" y="327.32" width="6.44" height="4.54" style="fill:#fff"></rect><rect x="297.72" y="327.32" width="6.44" height="4.54" style="fill:#fff"></rect><rect x="276.22" y="333.92" width="6.44" height="4.54" style="fill:#fff"></rect><rect x="285.82" y="333.92" width="6.44" height="4.54" style="fill:#fff"></rect><rect x="297.72" y="333.92" width="6.44" height="4.54" style="fill:#fff"></rect><rect x="358.85" y="260.69" width="3.48" height="3.98" style="fill:#fff"></rect><rect x="364.88" y="260.69" width="3.48" height="3.98" style="fill:#fff"></rect><rect x="358.85" y="266.68" width="3.48" height="3.98" style="fill:#fff"></rect><rect x="364.88" y="266.68" width="3.48" height="3.98" style="fill:#fff"></rect><rect x="358.85" y="272.67" width="3.48" height="3.98" style="fill:#fff"></rect><rect x="364.88" y="272.67" width="3.48" height="3.98" style="fill:#fff"></rect><rect x="358.85" y="278.66" width="3.48" height="3.98" style="fill:#fff"></rect><rect x="364.88" y="278.66" width="3.48" height="3.98" style="fill:#fff"></rect><rect x="358.85" y="284.79" width="3.48" height="3.98" style="fill:#fff"></rect><rect x="364.88" y="284.79" width="3.48" height="3.98" style="fill:#fff"></rect><rect x="358.85" y="290.93" width="3.48" height="3.98" style="fill:#fff"></rect><rect x="364.88" y="290.93" width="3.48" height="3.98" style="fill:#fff"></rect><rect x="358.85" y="297.07" width="3.48" height="3.98" style="fill:#fff"></rect><rect x="364.88" y="297.07" width="3.48" height="3.98" style="fill:#fff"></rect><rect x="358.85" y="303.21" width="3.48" height="3.98" style="fill:#fff"></rect><rect x="364.88" y="303.21" width="3.48" height="3.98" style="fill:#fff"></rect><rect x="358.85" y="309.41" width="3.48" height="3.98" style="fill:#fff"></rect><rect x="364.88" y="309.41" width="3.48" height="3.98" style="fill:#fff"></rect><rect x="358.85" y="315.61" width="3.48" height="3.98" style="fill:#fff"></rect><rect x="364.88" y="315.61" width="3.48" height="3.98" style="fill:#fff"></rect><rect x="358.85" y="321.82" width="3.48" height="3.98" style="fill:#fff"></rect><rect x="364.88" y="321.82" width="3.48" height="3.98" style="fill:#fff"></rect><rect x="358.85" y="328.02" width="3.48" height="3.98" style="fill:#fff"></rect><rect x="364.88" y="328.02" width="3.48" height="3.98" style="fill:#fff"></rect><rect x="443.76" y="261.33" width="3.48" height="4.69" style="fill:#fff"></rect><rect x="449.78" y="261.33" width="3.48" height="4.69" style="fill:#fff"></rect><rect x="443.76" y="268.39" width="3.48" height="4.69" style="fill:#fff"></rect><rect x="449.78" y="268.39" width="3.48" height="4.69" style="fill:#fff"></rect><rect x="443.76" y="275.45" width="3.48" height="4.69" style="fill:#fff"></rect><rect x="449.78" y="275.45" width="3.48" height="4.69" style="fill:#fff"></rect><rect x="443.76" y="282.5" width="3.48" height="4.69" style="fill:#fff"></rect><rect x="449.78" y="282.5" width="3.48" height="4.69" style="fill:#fff"></rect><rect x="443.76" y="289.73" width="3.48" height="4.69" style="fill:#fff"></rect><rect x="449.78" y="289.73" width="3.48" height="4.69" style="fill:#fff"></rect><rect x="443.76" y="296.97" width="3.48" height="4.69" style="fill:#fff"></rect><rect x="449.78" y="296.97" width="3.48" height="4.69" style="fill:#fff"></rect><rect x="443.76" y="304.2" width="3.48" height="4.69" style="fill:#fff"></rect><rect x="449.78" y="304.2" width="3.48" height="4.69" style="fill:#fff"></rect><rect x="443.76" y="311.43" width="3.48" height="4.69" style="fill:#fff"></rect><rect x="449.78" y="311.43" width="3.48" height="4.69" style="fill:#fff"></rect><rect x="443.76" y="318.74" width="3.48" height="4.69" style="fill:#fff"></rect><rect x="449.78" y="318.74" width="3.48" height="4.69" style="fill:#fff"></rect><rect x="443.76" y="326.04" width="3.48" height="4.69" style="fill:#fff"></rect><rect x="449.78" y="326.04" width="3.48" height="4.69" style="fill:#fff"></rect><rect x="443.76" y="333.35" width="3.48" height="4.69" style="fill:#fff"></rect><rect x="449.78" y="333.35" width="3.48" height="4.69" style="fill:#fff"></rect><rect x="443.76" y="340.66" width="3.48" height="4.69" style="fill:#fff"></rect><rect x="449.78" y="340.66" width="3.48" height="4.69" style="fill:#fff"></rect><rect x="371.74" y="260.69" width="3.48" height="3.98" style="fill:#fff"></rect><rect x="377.77" y="260.69" width="3.48" height="3.98" style="fill:#fff"></rect><rect x="371.74" y="254.55" width="3.48" height="3.98" style="fill:#fff"></rect><rect x="377.77" y="254.55" width="3.48" height="3.98" style="fill:#fff"></rect><rect x="371.74" y="248.4" width="3.48" height="3.98" style="fill:#fff"></rect><rect x="377.77" y="248.4" width="3.48" height="3.98" style="fill:#fff"></rect><rect x="371.74" y="266.68" width="3.48" height="3.98" style="fill:#fff"></rect><rect x="377.77" y="266.68" width="3.48" height="3.98" style="fill:#fff"></rect><rect x="371.74" y="272.67" width="3.48" height="3.98" style="fill:#fff"></rect><rect x="377.77" y="272.67" width="3.48" height="3.98" style="fill:#fff"></rect><rect x="371.74" y="278.66" width="3.48" height="3.98" style="fill:#fff"></rect><rect x="377.77" y="278.66" width="3.48" height="3.98" style="fill:#fff"></rect><rect x="371.74" y="284.79" width="3.48" height="3.98" style="fill:#fff"></rect><rect x="377.77" y="284.79" width="3.48" height="3.98" style="fill:#fff"></rect><rect x="371.74" y="290.93" width="3.48" height="3.98" style="fill:#fff"></rect><rect x="377.77" y="290.93" width="3.48" height="3.98" style="fill:#fff"></rect><rect x="371.74" y="297.07" width="3.48" height="3.98" style="fill:#fff"></rect><rect x="377.77" y="297.07" width="3.48" height="3.98" style="fill:#fff"></rect><rect x="371.74" y="303.21" width="3.48" height="3.98" style="fill:#fff"></rect><rect x="377.77" y="303.21" width="3.48" height="3.98" style="fill:#fff"></rect><rect x="371.74" y="309.41" width="3.48" height="3.98" style="fill:#fff"></rect><rect x="377.77" y="309.41" width="3.48" height="3.98" style="fill:#fff"></rect><rect x="371.74" y="315.61" width="3.48" height="3.98" style="fill:#fff"></rect><rect x="377.77" y="315.61" width="3.48" height="3.98" style="fill:#fff"></rect><rect x="371.74" y="321.82" width="3.48" height="3.98" style="fill:#fff"></rect><rect x="377.77" y="321.82" width="3.48" height="3.98" style="fill:#fff"></rect><rect x="371.74" y="328.02" width="3.48" height="3.98" style="fill:#fff"></rect><rect x="377.77" y="328.02" width="3.48" height="3.98" style="fill:#fff"></rect><polygon points="217.35 376.54 45.77 376.54 45.77 270.48 66.32 270.48 66.32 295.44 71.61 295.44 71.61 281.31 97.74 281.31 97.74 303.68 101.2 303.68 101.2 251.18 123.91 251.18 123.91 265.59 135.56 265.59 135.56 283.52 139.08 283.52 139.08 272.24 159.73 272.24 159.73 305.89 165.77 305.89 165.77 278.54 184.65 278.54 184.65 257.76 197.49 257.76 212.34 257.83 212.34 298.41 217.34 298.41 217.35 376.54" style="fill:#dbdbdb"></polygon><rect x="48.29" y="273.62" width="3.48" height="4.77" style="fill:#fff"></rect><rect x="54.31" y="273.62" width="3.48" height="4.77" style="fill:#fff"></rect><rect x="60.34" y="273.62" width="3.48" height="4.77" style="fill:#fff"></rect><rect x="48.29" y="280.8" width="3.48" height="4.77" style="fill:#fff"></rect><rect x="54.31" y="280.8" width="3.48" height="4.77" style="fill:#fff"></rect><rect x="60.34" y="280.8" width="3.48" height="4.77" style="fill:#fff"></rect><rect x="48.29" y="287.98" width="3.48" height="4.77" style="fill:#fff"></rect><rect x="54.31" y="287.98" width="3.48" height="4.77" style="fill:#fff"></rect><rect x="60.34" y="287.98" width="3.48" height="4.77" style="fill:#fff"></rect><rect x="48.29" y="295.16" width="3.48" height="4.77" style="fill:#fff"></rect><rect x="54.31" y="295.16" width="3.48" height="4.77" style="fill:#fff"></rect><rect x="60.34" y="295.16" width="3.48" height="4.77" style="fill:#fff"></rect><rect x="168.67" y="281.95" width="3.48" height="3.98" style="fill:#fff"></rect><rect x="174.69" y="281.95" width="3.48" height="3.98" style="fill:#fff"></rect><rect x="180.72" y="281.95" width="3.48" height="3.98" style="fill:#fff"></rect><rect x="168.67" y="287.94" width="3.48" height="3.98" style="fill:#fff"></rect><rect x="174.69" y="287.94" width="3.48" height="3.98" style="fill:#fff"></rect><rect x="180.72" y="287.94" width="3.48" height="3.98" style="fill:#fff"></rect><rect x="168.67" y="293.93" width="3.48" height="3.98" style="fill:#fff"></rect><rect x="174.69" y="293.93" width="3.48" height="3.98" style="fill:#fff"></rect><rect x="180.72" y="293.93" width="3.48" height="3.98" style="fill:#fff"></rect><rect x="168.67" y="299.92" width="3.48" height="3.98" style="fill:#fff"></rect><rect x="174.69" y="299.92" width="3.48" height="3.98" style="fill:#fff"></rect><rect x="180.72" y="299.92" width="3.48" height="3.98" style="fill:#fff"></rect><rect x="168.67" y="306.05" width="3.48" height="3.98" style="fill:#fff"></rect><rect x="174.69" y="306.05" width="3.48" height="3.98" style="fill:#fff"></rect><rect x="180.72" y="306.05" width="3.48" height="3.98" style="fill:#fff"></rect><rect x="168.67" y="312.19" width="3.48" height="3.98" style="fill:#fff"></rect><rect x="174.69" y="312.19" width="3.48" height="3.98" style="fill:#fff"></rect><rect x="180.72" y="312.19" width="3.48" height="3.98" style="fill:#fff"></rect><rect x="168.67" y="318.33" width="3.48" height="3.98" style="fill:#fff"></rect><rect x="174.69" y="318.33" width="3.48" height="3.98" style="fill:#fff"></rect><rect x="180.72" y="318.33" width="3.48" height="3.98" style="fill:#fff"></rect><rect x="168.67" y="324.47" width="3.48" height="3.98" style="fill:#fff"></rect><rect x="174.69" y="324.47" width="3.48" height="3.98" style="fill:#fff"></rect><rect x="180.72" y="324.47" width="3.48" height="3.98" style="fill:#fff"></rect><rect x="74.58" y="284.37" width="20.02" height="2.98" style="fill:#fff"></rect><rect x="74.58" y="290.16" width="20.02" height="2.98" style="fill:#fff"></rect><rect x="74.58" y="295.95" width="20.02" height="2.98" style="fill:#fff"></rect><rect x="74.58" y="301.74" width="20.02" height="2.98" style="fill:#fff"></rect><rect x="74.58" y="307.53" width="20.02" height="2.98" style="fill:#fff"></rect><rect x="74.58" y="313.32" width="20.02" height="2.98" style="fill:#fff"></rect><rect x="74.58" y="319.11" width="20.02" height="2.98" style="fill:#fff"></rect><rect x="74.58" y="324.9" width="20.02" height="2.98" style="fill:#fff"></rect><rect x="145.12" y="274.95" width="6.18" height="2.88" style="fill:#fff"></rect><rect x="145.12" y="280.54" width="6.18" height="2.88" style="fill:#fff"></rect><rect x="145.12" y="286.13" width="6.18" height="2.88" style="fill:#fff"></rect><rect x="145.12" y="291.72" width="6.18" height="2.88" style="fill:#fff"></rect><rect x="145.12" y="297.31" width="6.18" height="2.88" style="fill:#fff"></rect><rect x="145.12" y="302.9" width="6.18" height="2.88" style="fill:#fff"></rect><rect x="145.12" y="308.5" width="6.18" height="2.88" style="fill:#fff"></rect><rect x="145.12" y="314.09" width="6.18" height="2.88" style="fill:#fff"></rect><rect x="153.53" y="274.95" width="6.18" height="2.88" style="fill:#fff"></rect><rect x="153.53" y="280.54" width="6.18" height="2.88" style="fill:#fff"></rect><rect x="153.53" y="286.13" width="6.18" height="2.88" style="fill:#fff"></rect><rect x="153.53" y="291.72" width="6.18" height="2.88" style="fill:#fff"></rect><rect x="153.53" y="297.31" width="6.18" height="2.88" style="fill:#fff"></rect><rect x="153.53" y="302.9" width="6.18" height="2.88" style="fill:#fff"></rect><rect x="153.53" y="308.5" width="6.18" height="2.88" style="fill:#fff"></rect><rect x="153.53" y="314.09" width="6.18" height="2.88" style="fill:#fff"></rect><rect x="104.64" y="254.2" width="6.44" height="4.54" style="fill:#fff"></rect><rect x="114.24" y="254.2" width="6.44" height="4.54" style="fill:#fff"></rect><rect x="104.64" y="260.88" width="6.44" height="4.54" style="fill:#fff"></rect><rect x="114.24" y="260.88" width="6.44" height="4.54" style="fill:#fff"></rect><rect x="104.64" y="267.55" width="6.44" height="4.54" style="fill:#fff"></rect><rect x="114.24" y="267.55" width="6.44" height="4.54" style="fill:#fff"></rect><rect x="104.64" y="274.23" width="6.44" height="4.54" style="fill:#fff"></rect><rect x="114.24" y="274.23" width="6.44" height="4.54" style="fill:#fff"></rect><rect x="104.64" y="280.91" width="6.44" height="4.54" style="fill:#fff"></rect><rect x="114.24" y="280.91" width="6.44" height="4.54" style="fill:#fff"></rect><rect x="104.64" y="287.58" width="6.44" height="4.54" style="fill:#fff"></rect><rect x="114.24" y="287.58" width="6.44" height="4.54" style="fill:#fff"></rect><rect x="104.64" y="294.26" width="6.44" height="4.54" style="fill:#fff"></rect><rect x="114.24" y="294.26" width="6.44" height="4.54" style="fill:#fff"></rect><rect x="104.64" y="300.93" width="6.44" height="4.54" style="fill:#fff"></rect><rect x="114.24" y="300.93" width="6.44" height="4.54" style="fill:#fff"></rect><rect x="126.15" y="267.55" width="6.44" height="4.54" style="fill:#fff"></rect><rect x="126.15" y="274.23" width="6.44" height="4.54" style="fill:#fff"></rect><rect x="126.15" y="280.91" width="6.44" height="4.54" style="fill:#fff"></rect><rect x="126.15" y="287.58" width="6.44" height="4.54" style="fill:#fff"></rect><rect x="126.15" y="294.26" width="6.44" height="4.54" style="fill:#fff"></rect><rect x="126.15" y="300.93" width="6.44" height="4.54" style="fill:#fff"></rect><rect x="104.64" y="307.53" width="6.44" height="4.54" style="fill:#fff"></rect><rect x="114.24" y="307.53" width="6.44" height="4.54" style="fill:#fff"></rect><rect x="126.15" y="307.53" width="6.44" height="4.54" style="fill:#fff"></rect><rect x="104.64" y="314.13" width="6.44" height="4.54" style="fill:#fff"></rect><rect x="114.24" y="314.13" width="6.44" height="4.54" style="fill:#fff"></rect><rect x="126.15" y="314.13" width="6.44" height="4.54" style="fill:#fff"></rect><rect x="104.64" y="320.72" width="6.44" height="4.54" style="fill:#fff"></rect><rect x="114.24" y="320.72" width="6.44" height="4.54" style="fill:#fff"></rect><rect x="126.15" y="320.72" width="6.44" height="4.54" style="fill:#fff"></rect><rect x="104.64" y="327.32" width="6.44" height="4.54" style="fill:#fff"></rect><rect x="114.24" y="327.32" width="6.44" height="4.54" style="fill:#fff"></rect><rect x="126.15" y="327.32" width="6.44" height="4.54" style="fill:#fff"></rect><rect x="104.64" y="333.92" width="6.44" height="4.54" style="fill:#fff"></rect><rect x="114.24" y="333.92" width="6.44" height="4.54" style="fill:#fff"></rect><rect x="126.15" y="333.92" width="6.44" height="4.54" style="fill:#fff"></rect><rect x="187.27" y="260.69" width="3.48" height="3.98" style="fill:#fff"></rect><rect x="193.3" y="260.69" width="3.48" height="3.98" style="fill:#fff"></rect><rect x="187.27" y="266.68" width="3.48" height="3.98" style="fill:#fff"></rect><rect x="193.3" y="266.68" width="3.48" height="3.98" style="fill:#fff"></rect><rect x="187.27" y="272.67" width="3.48" height="3.98" style="fill:#fff"></rect><rect x="193.3" y="272.67" width="3.48" height="3.98" style="fill:#fff"></rect><rect x="187.27" y="278.66" width="3.48" height="3.98" style="fill:#fff"></rect><rect x="193.3" y="278.66" width="3.48" height="3.98" style="fill:#fff"></rect><rect x="187.27" y="284.79" width="3.48" height="3.98" style="fill:#fff"></rect><rect x="193.3" y="284.79" width="3.48" height="3.98" style="fill:#fff"></rect><rect x="187.27" y="290.93" width="3.48" height="3.98" style="fill:#fff"></rect><rect x="193.3" y="290.93" width="3.48" height="3.98" style="fill:#fff"></rect><rect x="187.27" y="297.07" width="3.48" height="3.98" style="fill:#fff"></rect><rect x="193.3" y="297.07" width="3.48" height="3.98" style="fill:#fff"></rect><rect x="187.27" y="303.21" width="3.48" height="3.98" style="fill:#fff"></rect><rect x="193.3" y="303.21" width="3.48" height="3.98" style="fill:#fff"></rect><rect x="187.27" y="309.41" width="3.48" height="3.98" style="fill:#fff"></rect><rect x="193.3" y="309.41" width="3.48" height="3.98" style="fill:#fff"></rect><rect x="187.27" y="315.61" width="3.48" height="3.98" style="fill:#fff"></rect><rect x="193.3" y="315.61" width="3.48" height="3.98" style="fill:#fff"></rect><rect x="187.27" y="321.82" width="3.48" height="3.98" style="fill:#fff"></rect><rect x="193.3" y="321.82" width="3.48" height="3.98" style="fill:#fff"></rect><rect x="187.27" y="328.02" width="3.48" height="3.98" style="fill:#fff"></rect><rect x="193.3" y="328.02" width="3.48" height="3.98" style="fill:#fff"></rect><rect x="200.16" y="260.69" width="3.48" height="3.98" style="fill:#fff"></rect><rect x="206.19" y="260.69" width="3.48" height="3.98" style="fill:#fff"></rect><rect x="200.16" y="266.68" width="3.48" height="3.98" style="fill:#fff"></rect><rect x="206.19" y="266.68" width="3.48" height="3.98" style="fill:#fff"></rect><rect x="200.16" y="272.67" width="3.48" height="3.98" style="fill:#fff"></rect><rect x="206.19" y="272.67" width="3.48" height="3.98" style="fill:#fff"></rect><rect x="200.16" y="278.66" width="3.48" height="3.98" style="fill:#fff"></rect><rect x="206.19" y="278.66" width="3.48" height="3.98" style="fill:#fff"></rect><rect x="200.16" y="284.79" width="3.48" height="3.98" style="fill:#fff"></rect><rect x="206.19" y="284.79" width="3.48" height="3.98" style="fill:#fff"></rect><rect x="200.16" y="290.93" width="3.48" height="3.98" style="fill:#fff"></rect><rect x="206.19" y="290.93" width="3.48" height="3.98" style="fill:#fff"></rect><rect x="200.16" y="297.07" width="3.48" height="3.98" style="fill:#fff"></rect><rect x="206.19" y="297.07" width="3.48" height="3.98" style="fill:#fff"></rect><rect x="200.16" y="303.21" width="3.48" height="3.98" style="fill:#fff"></rect><rect x="206.19" y="303.21" width="3.48" height="3.98" style="fill:#fff"></rect><rect x="200.16" y="309.41" width="3.48" height="3.98" style="fill:#fff"></rect><rect x="206.19" y="309.41" width="3.48" height="3.98" style="fill:#fff"></rect><rect x="200.16" y="315.61" width="3.48" height="3.98" style="fill:#fff"></rect><rect x="206.19" y="315.61" width="3.48" height="3.98" style="fill:#fff"></rect><rect x="200.16" y="321.82" width="3.48" height="3.98" style="fill:#fff"></rect><rect x="206.19" y="321.82" width="3.48" height="3.98" style="fill:#fff"></rect><rect x="200.16" y="328.02" width="3.48" height="3.98" style="fill:#fff"></rect><rect x="206.19" y="328.02" width="3.48" height="3.98" style="fill:#fff"></rect></g><g id="freepik--Shadow--inject-11"><ellipse cx="215" cy="461.02" rx="95.21" ry="8.91" style="fill:#ebebeb"></ellipse></g><g id="freepik--Trees--inject-11"><path d="M453.82,358.43c-1.32,1.32-16.66,1.9-22.24,1.9s-20.92-.58-22.23-1.9,17.26-103.27,22.23-103.27S455.13,357.11,453.82,358.43Z" style="fill:#455a64"></path><path d="M454.12,332.45c-3.78,1.45-17.82,7.16-20.86,8.83v-1.92c3.38-2,6.78-4,10.18-5.94,3.64-2.12,7.56-4,10.95-6.51.17-.12.08-.46-.15-.37a90.23,90.23,0,0,0-10.72,5.92c-3.45,2-6.86,4.11-10.27,6.21q0-7.32-.06-14.65a116.75,116.75,0,0,0,16-8.14c.18-.1.06-.42-.14-.34a118.45,118.45,0,0,0-15.86,7.82c0-2.54,0-5.08-.06-7.62-.14-13.08-.16-26.18-.5-39.27,3.33-1.67,6.76-3.16,10.09-4.84.21-.11.06-.5-.17-.4-3.38,1.31-6.63,2.88-9.94,4.33-.18-6.75-.44-13.5-.85-20.24a.18.18,0,0,0-.35,0c-.47,12.54-.43,25.08-.27,37.62-3.45-2.75-7.13-5.18-10.64-7.85-.13-.11-.26.12-.13.23,3.67,2.79,7.1,5.88,10.78,8.66l0,2.13c-3.74-1.71-7.53-3.3-11.31-4.92-.3-.13-.56.3-.26.44,3.85,1.85,7.68,3.73,11.58,5.47.09,6.22.2,12.43.28,18.64.14,10.85.38,21.69.61,32.54q-10.59-5.36-21.33-10.42c-.27-.13-.51.26-.24.41a219.87,219.87,0,0,0,21.59,10.84c.19,9,.37,18,.49,27a.43.43,0,0,0,.85,0c-.13-11.49-.14-23-.18-34.48,3.73-.92,17.79-6.95,21.13-8.59C454.73,332.91,454.49,332.31,454.12,332.45Z" style="fill:#37474f"></path><path d="M84.16,358.85c-1.29,1.29-16.27,1.86-21.72,1.86s-20.43-.57-21.72-1.86S57.58,258,62.44,258,85.44,357.57,84.16,358.85Z" style="fill:#455a64"></path><path d="M84.46,333.48c-3.7,1.41-17.42,7-20.38,8.62,0-.62,0-1.25,0-1.87,3.31-2,6.63-3.87,10-5.8,3.56-2.08,7.38-3.93,10.7-6.37.16-.12.07-.45-.15-.36a89.74,89.74,0,0,0-10.47,5.79q-5.05,3-10,6.07,0-7.17-.06-14.32a114.11,114.11,0,0,0,15.63-7.94c.17-.11,0-.42-.14-.34A114.17,114.17,0,0,0,64,324.6c0-2.48,0-5-.06-7.45-.13-12.77-.16-25.57-.49-38.35,3.26-1.64,6.6-3.08,9.85-4.73.22-.11.07-.48-.16-.39-3.3,1.28-6.47,2.81-9.71,4.23-.18-6.59-.43-13.18-.83-19.76a.17.17,0,0,0-.34,0c-.46,12.24-.42,24.49-.26,36.74-3.37-2.69-7-5.07-10.39-7.67-.13-.1-.26.12-.13.22,3.58,2.73,6.93,5.75,10.53,8.47,0,.69,0,1.38,0,2.07-3.65-1.67-7.35-3.22-11-4.8-.29-.13-.55.29-.26.43,3.76,1.8,7.51,3.64,11.32,5.34q.13,9.1.27,18.2c.14,10.6.37,21.19.59,31.79q-10.33-5.24-20.83-10.18c-.27-.12-.5.25-.23.4a215.08,215.08,0,0,0,21.08,10.59c.19,8.81.37,17.61.48,26.41a.42.42,0,0,0,.83,0c-.12-11.23-.14-22.45-.17-33.68,3.64-.9,17.37-6.78,20.63-8.39C85.05,333.92,84.81,333.34,84.46,333.48Z" style="fill:#37474f"></path><path d="M415.47,357.52c-1.38,1.38-17.49,2-23.35,2s-22-.61-23.35-2S386.9,249,392.12,249,416.86,356.13,415.47,357.52Z" style="fill:#37474f"></path><path d="M415.8,330.23c-4,1.52-18.73,7.52-21.91,9.27,0-.67,0-1.34,0-2q5.33-3.14,10.69-6.24c3.83-2.23,7.94-4.22,11.51-6.84.17-.13.08-.49-.16-.39-3.94,1.64-7.59,4.07-11.26,6.22s-7.21,4.32-10.79,6.53q0-7.69-.06-15.4a122.15,122.15,0,0,0,16.8-8.54c.19-.11.07-.45-.15-.36a124.35,124.35,0,0,0-16.66,8.21c0-2.67,0-5.34-.05-8-.15-13.75-.18-27.5-.53-41.24,3.5-1.77,7.1-3.32,10.6-5.1.22-.11.06-.51-.18-.42-3.55,1.38-7,3-10.44,4.56-.19-7.09-.46-14.18-.9-21.26a.18.18,0,0,0-.36,0c-.49,13.16-.45,26.34-.29,39.51-3.62-2.89-7.48-5.44-11.17-8.25-.14-.11-.28.13-.14.24,3.86,2.93,7.46,6.18,11.33,9.11l0,2.23c-3.93-1.8-7.92-3.47-11.89-5.17-.31-.13-.58.32-.27.47,4,1.94,8.08,3.91,12.17,5.74.09,6.53.2,13,.29,19.58.15,11.39.4,22.78.64,34.17q-11.11-5.62-22.4-10.94c-.29-.13-.54.27-.26.43a235.52,235.52,0,0,0,22.68,11.39c.2,9.47.4,18.93.52,28.4a.45.45,0,0,0,.89,0c-.13-12.07-.15-24.15-.18-36.22,3.91-1,18.68-7.29,22.18-9C416.44,330.71,416.18,330.08,415.8,330.23Z" style="fill:#455a64"></path><path d="M142.71,357.52c-1.39,1.38-17.5,2-23.36,2s-22-.61-23.35-2S114.13,249,119.35,249,144.09,356.13,142.71,357.52Z" style="fill:#37474f"></path><path d="M143,330.23c-4,1.52-18.73,7.52-21.91,9.27,0-.67,0-1.34,0-2q5.34-3.14,10.69-6.24c3.83-2.23,7.94-4.22,11.51-6.84.18-.13.08-.49-.16-.39-3.93,1.64-7.59,4.07-11.26,6.22s-7.21,4.32-10.78,6.53c0-5.13,0-10.27-.07-15.4a122.83,122.83,0,0,0,16.81-8.54c.18-.11.06-.45-.15-.36A123.18,123.18,0,0,0,121,320.68c0-2.67,0-5.34-.06-8-.15-13.75-.17-27.5-.52-41.24,3.49-1.77,7.09-3.32,10.59-5.1a.23.23,0,0,0-.18-.42c-3.55,1.38-7,3-10.44,4.56-.19-7.09-.46-14.18-.89-21.26a.19.19,0,0,0-.37,0c-.49,13.16-.45,26.34-.28,39.51-3.62-2.89-7.49-5.44-11.17-8.25-.15-.11-.28.13-.14.24,3.85,2.93,7.46,6.18,11.32,9.11l0,2.23c-3.93-1.8-7.91-3.47-11.88-5.17-.31-.13-.59.32-.27.47,4,1.94,8.07,3.91,12.16,5.74.1,6.53.21,13,.29,19.58.15,11.39.4,22.78.65,34.17q-11.13-5.62-22.41-10.94c-.29-.13-.53.27-.25.43a234.2,234.2,0,0,0,22.67,11.39c.21,9.47.4,18.93.52,28.4a.45.45,0,0,0,.9,0c-.14-12.07-.16-24.15-.19-36.22,3.91-1,18.68-7.29,22.19-9C143.67,330.71,143.41,330.08,143,330.23Z" style="fill:#455a64"></path><path d="M346.77,363.25c1,1,12.23,1.4,16.33,1.4s15.35-.43,16.32-1.4-12.67-75.81-16.32-75.81S345.81,362.29,346.77,363.25Z" style="fill:#455a64"></path><path d="M346.55,344.18c2.78,1.06,13.09,5.26,15.31,6.48,0-.47,0-.94,0-1.41l-7.48-4.36a86.82,86.82,0,0,1-8-4.78c-.12-.09-.05-.34.11-.27a67.76,67.76,0,0,1,7.87,4.35c2.54,1.49,5,3,7.54,4.56,0-3.59,0-7.17.05-10.76a84.73,84.73,0,0,1-11.75-6c-.13-.08,0-.31.11-.25a85.51,85.51,0,0,1,11.64,5.74c0-1.87,0-3.73,0-5.6.1-9.6.12-19.22.37-28.82-2.45-1.23-5-2.32-7.41-3.56-.16-.08,0-.36.13-.29,2.48,1,4.86,2.11,7.29,3.18.14-5,.33-9.91.63-14.86a.13.13,0,0,1,.25,0c.35,9.2.32,18.41.2,27.62,2.53-2,5.23-3.81,7.81-5.77.1-.07.2.09.1.17-2.7,2.05-5.22,4.32-7.92,6.36,0,.52,0,1,0,1.56,2.75-1.25,5.53-2.42,8.31-3.61.21-.09.41.22.19.33-2.83,1.35-5.65,2.73-8.51,4-.06,4.56-.14,9.12-.2,13.68-.1,8-.28,15.93-.45,23.89q7.77-3.93,15.66-7.65c.2-.09.37.19.18.3a163,163,0,0,1-15.85,8c-.14,6.62-.28,13.23-.36,19.85a.32.32,0,0,1-.63,0c.09-8.44.11-16.88.13-25.31-2.73-.68-13.05-5.1-15.51-6.31C346.1,344.52,346.28,344.08,346.55,344.18Z" style="fill:#37474f"></path><path d="M84.33,363.25c1,1,12.23,1.4,16.32,1.4s15.36-.43,16.33-1.4-12.68-75.81-16.33-75.81S83.37,362.29,84.33,363.25Z" style="fill:#455a64"></path><path d="M84.11,344.18c2.78,1.06,13.08,5.26,15.31,6.48,0-.47,0-.94,0-1.41L92,344.89a85.52,85.52,0,0,1-8-4.78c-.12-.09-.06-.34.11-.27a67.76,67.76,0,0,1,7.87,4.35c2.53,1.49,5,3,7.54,4.56,0-3.59,0-7.17,0-10.76a85.18,85.18,0,0,1-11.74-6c-.13-.08,0-.31.1-.25a85.63,85.63,0,0,1,11.65,5.74c0-1.87,0-3.73,0-5.6.1-9.6.12-19.22.36-28.82-2.44-1.23-5-2.32-7.4-3.56-.16-.08,0-.36.12-.29,2.48,1,4.87,2.11,7.3,3.18.13-5,.32-9.91.62-14.86a.13.13,0,0,1,.26,0c.34,9.2.31,18.41.2,27.62,2.53-2,5.23-3.81,7.81-5.77.1-.07.19.09.09.17-2.69,2.05-5.21,4.32-7.91,6.36,0,.52,0,1,0,1.56,2.74-1.25,5.53-2.42,8.3-3.61.22-.09.41.22.19.33-2.82,1.35-5.64,2.73-8.5,4q-.1,6.84-.2,13.68c-.11,8-.28,15.93-.45,23.89q7.77-3.93,15.66-7.65c.2-.09.37.19.17.3a161.67,161.67,0,0,1-15.84,8q-.23,9.93-.37,19.85a.31.31,0,0,1-.62,0c.09-8.44.11-16.88.13-25.31-2.73-.68-13.06-5.1-15.51-6.31C83.66,344.52,83.84,344.08,84.11,344.18Z" style="fill:#37474f"></path></g><g id="freepik--Floor--inject-11"><polygon points="28.43 382.67 83.82 382.43 139.22 382.34 250 382.18 360.78 382.34 416.18 382.43 471.57 382.67 416.18 382.92 360.78 383.01 250 383.17 139.22 383 83.82 382.92 28.43 382.67" style="fill:#263238"></polygon><rect x="40.02" y="376.56" width="419.96" height="6.09" style="fill:#c7c7c7"></rect><path d="M69.46,376.56a8.56,8.56,0,0,1,.5,3.05,8.29,8.29,0,0,1-.5,3,9.52,9.52,0,0,1,0-6.09Z" style="fill:#263238"></path><path d="M102.29,376.56a9.52,9.52,0,0,1,0,6.09,8.29,8.29,0,0,1-.5-3A8.56,8.56,0,0,1,102.29,376.56Z" style="fill:#263238"></path><path d="M135.11,376.56a8.56,8.56,0,0,1,.5,3.05,8.29,8.29,0,0,1-.5,3,9.52,9.52,0,0,1,0-6.09Z" style="fill:#263238"></path><path d="M167.94,376.56a9.52,9.52,0,0,1,0,6.09,8.29,8.29,0,0,1-.5-3A8.56,8.56,0,0,1,167.94,376.56Z" style="fill:#263238"></path><path d="M200.76,376.56a8.56,8.56,0,0,1,.5,3.05,8.29,8.29,0,0,1-.5,3,9.52,9.52,0,0,1,0-6.09Z" style="fill:#263238"></path><path d="M233.59,376.56a9.52,9.52,0,0,1,0,6.09,8.29,8.29,0,0,1-.5-3A8.56,8.56,0,0,1,233.59,376.56Z" style="fill:#263238"></path><path d="M266.41,376.56a8.56,8.56,0,0,1,.5,3.05,8.29,8.29,0,0,1-.5,3,9.52,9.52,0,0,1,0-6.09Z" style="fill:#263238"></path><path d="M299.24,376.56a9.52,9.52,0,0,1,0,6.09,8.29,8.29,0,0,1-.5-3A8.56,8.56,0,0,1,299.24,376.56Z" style="fill:#263238"></path><path d="M332.06,376.56a8.56,8.56,0,0,1,.5,3.05,8.29,8.29,0,0,1-.5,3,9.52,9.52,0,0,1,0-6.09Z" style="fill:#263238"></path><path d="M364.89,376.56a9.52,9.52,0,0,1,0,6.09,8.29,8.29,0,0,1-.5-3A8.56,8.56,0,0,1,364.89,376.56Z" style="fill:#263238"></path><path d="M397.71,376.56a8.56,8.56,0,0,1,.5,3.05,8.29,8.29,0,0,1-.5,3,9.52,9.52,0,0,1,0-6.09Z" style="fill:#263238"></path><path d="M430.54,376.56a9.52,9.52,0,0,1,0,6.09,8.29,8.29,0,0,1-.5-3A8.56,8.56,0,0,1,430.54,376.56Z" style="fill:#263238"></path></g><g id="freepik--Character--inject-11"><path d="M173.41,102c-3.88,9.85-10.2,21-9.21,31.94.79,8.56,6.07,15.95,12.2,21.64,13.5,12.51,35.48,21.07,52,9.09,6.62-4.79,11.89-17.67,6.15-25-2.95-3.76-7.26-5.88-11.15-8.51A19.34,19.34,0,0,1,214.51,117c-1.59-12,2-19.17,4.83-30.6a8.34,8.34,0,0,0-.7-6.75,14.93,14.93,0,0,0-5.33-5.91A14.79,14.79,0,0,0,207,70.29c-5.09-1.17-11.36,1.75-16.13,3.26s-7.62,3.93-9.57,8.65C178.54,88.77,176,95.42,173.41,102Z" style="fill:#263238"></path><path d="M170.56,106.32c4.14-8.8,8.44-17.5,12.7-26.24,0,0,.11,0,.08,0-3.29,7.29-6.47,14.62-9.86,21.87s-7.22,14.19-9.91,21.56c-6,16.55,8.78,29.21,23.22,33.25.66.18.29,1.21-.37,1-12.57-3.95-26-13.3-25.09-28.13C161.81,121.55,167.17,113.51,170.56,106.32Z" style="fill:#263238"></path><path d="M218.84,85.23a.14.14,0,0,1,.27.1c-2.72,9.3-6.77,19.9-4.29,29.66a24.61,24.61,0,0,0,7.61,12.42c2.95,2.57,6.56,4,9.91,5.89,13.12,7.58,6.74,26.62-6,30.52-.26.09-.42-.37-.15-.47,9.16-3.26,15.1-12.87,11.86-22.53-2.6-7.75-12.31-8.9-17.59-14.42C209.49,115,214,98.44,218.84,85.23Z" style="fill:#263238"></path><path d="M178.34,174.21s22.91,115,24.52,123.55c.37,1.93-1,104.91-1,104.91h42.57s4.1-89.95,2.05-106.92-28-121.54-28-121.54Z" style="fill:#f7a9a0"></path><path d="M178.33,174.22s11.15,56,18.45,92.74l21.76-92.74Z" style="fill:#263238"></path><polygon points="232.97 231.74 187.71 237.18 178.34 174.21 218.53 174.21 232.97 231.74" style="fill:#455a64"></polygon><path d="M189.4,228.49c4.84-1,9.75-1.56,14.65-2.12s9.7-1.08,14.56-1.57c2.77-.29,5.56-.57,8.35-.71a.13.13,0,1,1,0,.26c-4.85.9-9.77,1.47-14.65,2.11s-9.69,1.24-14.54,1.76c-2.79.3-5.56.54-8.36.65A.19.19,0,1,1,189.4,228.49Z" style="fill:#263238"></path><path d="M184.6,177.88q5.06,18.09,9.63,36.3c.43,1.7.84,3.41,1.25,5.12a47.69,47.69,0,0,1,1.13,5.28.08.08,0,0,1-.16,0,89.71,89.71,0,0,1-2.64-9.12c-.81-3-1.59-6-2.37-9.05-1.55-6-3.11-12.07-4.57-18.13q-1.26-5.19-2.49-10.38A.11.11,0,0,1,184.6,177.88Z" style="fill:#263238"></path><path d="M276,441.69c-2.35.78-69.49.59-72.05-1-1-.6-1.51-10.39-1.82-22.22-.08-2.56-.13-5.19-.17-7.88-.05-3.18-.09-6.39-.11-9.51-.08-14,.64-48.81.64-48.81h43.91L245.63,401v9.51l-.23,7.88s25.67,11.57,28.28,13.66S278.32,440.92,276,441.69Z" style="fill:#ebebeb"></path><path d="M246.3,357l0,1-43.93.11c0-.14,0-.28,0-.41s0-.4,0-.59Z" style="fill:#3C4A49"></path><path d="M246.25,360.21l0,1-43.94.11c0-.14,0-.28,0-.41s0-.4,0-.59Z" style="fill:#37474f"></path><path d="M246.2,363.45l0,1-44,.1c0-.14,0-.27,0-.4s0-.4,0-.6Z" style="fill:#3C4A49"></path><path d="M276.15,441.73c-1.53.5-30.13.58-50.95.13-4.82-.1-9.22-.24-12.78-.39-4.9-.23-8.18-.5-8.72-.84-1.18-.76-1.86-30.5-2.12-45.65l21.42.21,1-6.34,22.77,1.1-1.41,28.36s25.8,11.65,28.43,13.75S278.5,440.94,276.15,441.73Z" style="fill:#3C4A49"></path><path d="M275.19,439c-11.32-.32-57-.53-68.2,0-.09,0-.09.07,0,.07,11.21.56,56.88.41,68.2.11C275.43,439.2,275.43,439,275.19,439Z" style="fill:#263238"></path><path d="M247,415.8c-4.45-.85-9.9-.18-13.32,3-.13.12.05.3.19.26A62.92,62.92,0,0,1,247,416.36.28.28,0,0,0,247,415.8Z" style="fill:#263238"></path><path d="M246.93,413.91c-4.21-1.68-9.68-2.08-13.64.37-.15.09,0,.31.13.29a62.34,62.34,0,0,1,13.38-.11A.29.29,0,0,0,246.93,413.91Z" style="fill:#263238"></path><path d="M247.12,411.15c-4.09-1.95-9.53-2.69-13.64-.5-.16.08,0,.31.12.3a62.21,62.21,0,0,1,13.35.74A.29.29,0,0,0,247.12,411.15Z" style="fill:#263238"></path><path d="M247.16,407.85c-4.09-2-9.53-2.69-13.63-.5-.16.09,0,.31.11.31a62.26,62.26,0,0,1,13.36.73A.29.29,0,0,0,247.16,407.85Z" style="fill:#263238"></path><path d="M247.21,404.55c-4.09-1.95-9.53-2.69-13.64-.49-.15.08,0,.31.12.3a62.94,62.94,0,0,1,13.36.73A.29.29,0,0,0,247.21,404.55Z" style="fill:#263238"></path><path d="M247.25,401.26c-4.09-1.95-9.52-2.69-13.63-.5-.16.08,0,.31.12.3a62.21,62.21,0,0,1,13.35.74A.28.28,0,0,0,247.25,401.26Z" style="fill:#263238"></path><path d="M250.21,417.75c-4.45-.85-9.9-.19-13.31,3-.13.13,0,.31.19.27a62.83,62.83,0,0,1,13.1-2.68A.28.28,0,0,0,250.21,417.75Z" style="fill:#263238"></path><path d="M253.42,419.7c-4.45-.85-9.9-.19-13.31,3-.13.13,0,.31.19.27a62.07,62.07,0,0,1,13.1-2.68A.28.28,0,0,0,253.42,419.7Z" style="fill:#263238"></path><path d="M256.63,421.64c-4.45-.84-9.9-.18-13.31,3-.14.12,0,.31.18.27a62.29,62.29,0,0,1,13.11-2.68A.29.29,0,0,0,256.63,421.64Z" style="fill:#263238"></path><path d="M254.29,390.35c-1.74-2.42-5-1.34-6.87.21a23.8,23.8,0,0,0-6.9,10.18.12.12,0,0,0,.11.16.55.55,0,0,0,.7.56c3.68-1.35,7.78-2.34,10.94-4.77C254.11,395.26,255.93,392.64,254.29,390.35Zm-7.8,7.92c-1.8.71-3.61,1.32-5.38,2.1,1.35-2,2.61-4,4.16-5.86a24.65,24.65,0,0,1,2.36-2.54c1.33-1.2,6.59-3.75,5.79,1.14C253,395.8,248.63,397.43,246.49,398.27Z" style="fill:#263238"></path><path d="M229.21,399.53c3.67,1.58,7.88,1.52,11.79,1.91.4,0,.6-.38.53-.71.07,0,.12-.1.06-.19a23.77,23.77,0,0,0-9.2-8.14c-2.19-1-5.62-1.27-6.71,1.5S227.07,398.61,229.21,399.53Zm-2-3.18c-2-4.53,3.73-3.37,5.32-2.53a25,25,0,0,1,2.93,1.87c1.95,1.4,3.68,3.06,5.48,4.64-1.91-.31-3.82-.45-5.74-.69C232.92,399.35,228.31,398.85,227.21,396.35Z" style="fill:#263238"></path><path d="M219.76,447.23a6.44,6.44,0,1,1-7-5.86A6.44,6.44,0,0,1,219.76,447.23Z" style="fill:#263238"></path><path d="M215.9,447.57a2.56,2.56,0,1,1-2.78-2.33A2.56,2.56,0,0,1,215.9,447.57Z" style="fill:#3C4A49"></path><path d="M270,447.8a6.43,6.43,0,1,1-7-5.85A6.44,6.44,0,0,1,270,447.8Z" style="fill:#263238"></path><path d="M266.14,448.14a2.56,2.56,0,1,1-2.77-2.33A2.56,2.56,0,0,1,266.14,448.14Z" style="fill:#3C4A49"></path><path d="M182.56,406.24l-43.66-3.57s8.54-65.88,9.31-78.55c.39-6.46,7.13-76.63,10.87-107.7,0,0-7.1-16.83,6.19-42.25h53.3s-3.57,24.19-9.69,39.53c0,0-4,1.06-11.15,5,0,0-4.61,99.22-6.6,114.38C188.7,351.71,182.56,406.24,182.56,406.24Z" style="fill:#f7a9a0"></path><path d="M197,237.51H155.08l3.18-21.09s-6.36-21.41,6.07-42.25h54.24s-2.25,22.69-8.9,39.75l-6.81,3Z" style="fill:#455a64"></path><path d="M202.86,217c0-.27.6-.27.55,0-2.21,12.44-5.69,18.46-5.94,19a.09.09,0,0,1-.16,0C197.12,235.4,201.86,222.11,202.86,217Z" style="fill:#263238"></path><path d="M210.91,213.08A88.81,88.81,0,0,0,197,219.54a.16.16,0,0,0,.13.29c4.68-2,9.44-3.93,14-6.19A.31.31,0,0,0,210.91,213.08Z" style="fill:#263238"></path><path d="M212.39,181c0-.16-.29-.19-.29,0a154.62,154.62,0,0,1-.79,15.62c-.21,2.4-2.15,15.71-6.32,14.74-.7-.16-1.06-.85-1.17-1.91a16.85,16.85,0,0,1,.56-4.08c.46-2.78.83-5.58,1.07-8.39a76,76,0,0,0-.17-15.74.14.14,0,0,0-.27,0A143.36,143.36,0,0,1,203.74,203c-.52,3.46-2.27,8.67,1.35,9.21s6.07-8.19,6.52-10.57A79.41,79.41,0,0,0,212.39,181Z" style="fill:#263238"></path><path d="M205.1,211.71a22.28,22.28,0,0,0-.94,2.75,6.34,6.34,0,0,0-.39,2.27c0,.15.21.16.29.06a8.19,8.19,0,0,0,1-2.2c.31-.86.65-1.7.94-2.57A.46.46,0,0,0,205.1,211.71Z" style="fill:#263238"></path><path d="M166.25,197.29c3.94-.39,8-.34,11.66-2.11s6.08-5.31,8-8.85a29.22,29.22,0,0,0,2.61-6.94.1.1,0,0,1,.2,0,19.56,19.56,0,0,1-1.61,6.55,29.78,29.78,0,0,1-3.13,5.8,14.13,14.13,0,0,1-4.51,4.23,15.54,15.54,0,0,1-5.92,1.79,33.53,33.53,0,0,1-7.29,0A.23.23,0,0,1,166.25,197.29Z" style="fill:#263238"></path><path d="M160.82,220.86A37.31,37.31,0,0,0,162,215c.11-2-.93-3.69-1.53-5.51-2.32-7.08-1.38-14.84,1.15-21.73a78.36,78.36,0,0,1,5.45-11.35c.05-.09.18,0,.14.09-3.46,6.74-6.51,13.94-7.18,21.56A28.8,28.8,0,0,0,161,209c.51,1.67,1.48,3.29,1.62,5.05a18.74,18.74,0,0,1-.86,5.5c-.51,2.21-2.05,8.87-2.73,11.11-.06.19-.4.15-.37-.06C159,228.58,160.37,222.9,160.82,220.86Z" style="fill:#263238"></path><path d="M157.8,232.05c4.92-.37,9.87-.36,14.8-.31s9.76.12,14.64.22c2.79.06,5.6.13,8.38.32a.14.14,0,1,1,0,.27c-4.92.29-9.87.26-14.8.3s-9.76,0-14.65,0c-2.8,0-5.58-.15-8.38-.38A.19.19,0,1,1,157.8,232.05Z" style="fill:#263238"></path><path d="M208.93,452.82c-2.41.57-69.27-5.5-71.68-7.35-.91-.68-.59-10.48.13-22.3.15-2.55.33-5.18.52-7.86.23-3.17.47-6.37.72-9.49,1.15-14,6.4-52,6.4-52l43.11,4-5.88,51.89-.84,9.47L180.5,427s24.55,13.78,27,16.09S211.33,452.25,208.93,452.82Z" style="fill:#ebebeb"></path><path d="M187.64,362.1l-.11,1-43.28-3.64c.05-.35.09-.68.13-1Z" style="fill:#3C4A49"></path><path d="M187.27,365.32l-.11,1-43.34-3.65c0-.34.09-.68.13-1Z" style="fill:#37474f"></path><path d="M186.91,368.54l-.11,1-43.41-3.66c0-.34.09-.66.13-1Z" style="fill:#3C4A49"></path><path d="M209.12,452.93c-1.57.37-30.06-2-50.76-4.28-4.79-.53-9.17-1-12.7-1.51-4.86-.65-8.11-1.21-8.61-1.59-1.11-.86.79-30.54,1.85-45.66L160.22,402l1.59-6.23,22.59,3.08-3.87,28.12s24.69,13.85,27.13,16.17S211.54,452.35,209.12,452.93Z" style="fill:#3C4A49"></path><path d="M208.4,450.16c-11.24-1.3-56.72-5.49-67.94-5.92-.09,0-.09.06,0,.07,11.12,1.54,56.63,5.35,67.93,6C208.62,450.36,208.64,450.18,208.4,450.16Z" style="fill:#263238"></path><path d="M182.35,424.57c-4.36-1.23-9.85-1-13.53,1.81-.14.11,0,.32.17.28a63.13,63.13,0,0,1,13.29-1.53A.29.29,0,0,0,182.35,424.57Z" style="fill:#263238"></path><path d="M182.43,422.69c-4-2.05-9.46-2.92-13.62-.82-.16.08,0,.31.11.3a62.89,62.89,0,0,1,13.34,1.05A.28.28,0,0,0,182.43,422.69Z" style="fill:#263238"></path><path d="M182.86,420c-3.91-2.3-9.26-3.51-13.54-1.68-.17.07-.06.31.09.31a62.45,62.45,0,0,1,13.24,1.89A.28.28,0,0,0,182.86,420Z" style="fill:#263238"></path><path d="M183.19,416.67c-3.9-2.3-9.26-3.51-13.54-1.68-.16.07-.06.3.09.31A62.45,62.45,0,0,1,183,417.19.28.28,0,0,0,183.19,416.67Z" style="fill:#263238"></path><path d="M183.52,413.39c-3.9-2.3-9.26-3.51-13.54-1.68-.16.07-.06.3.09.31a62.27,62.27,0,0,1,13.24,1.89A.28.28,0,0,0,183.52,413.39Z" style="fill:#263238"></path><path d="M183.86,410.11c-3.91-2.3-9.26-3.51-13.54-1.68-.17.07-.07.3.09.31a62.45,62.45,0,0,1,13.24,1.89A.28.28,0,0,0,183.86,410.11Z" style="fill:#263238"></path><path d="M185.37,426.79c-4.36-1.23-9.84-1-13.52,1.81-.14.11,0,.32.16.28a63.21,63.21,0,0,1,13.29-1.53A.29.29,0,0,0,185.37,426.79Z" style="fill:#263238"></path><path d="M188.4,429c-4.36-1.23-9.85-1-13.52,1.81-.15.11,0,.32.16.28a63.13,63.13,0,0,1,13.29-1.53A.29.29,0,0,0,188.4,429Z" style="fill:#263238"></path><path d="M191.42,431.23c-4.36-1.23-9.84-1-13.52,1.81-.14.11,0,.31.17.28a63.06,63.06,0,0,1,13.29-1.53A.28.28,0,0,0,191.42,431.23Z" style="fill:#263238"></path><path d="M191.81,399.85c-1.53-2.55-4.87-1.77-6.86-.38A23.69,23.69,0,0,0,177.2,409a.11.11,0,0,0,.09.17c0,.34.25.72.64.61,3.79-1,8-1.64,11.32-3.8C191.21,404.73,193.25,402.27,191.81,399.85Zm-8.46,7.22c-1.85.55-3.71,1-5.54,1.62a71.4,71.4,0,0,1,4.65-5.47,24.78,24.78,0,0,1,2.58-2.33c1.43-1.08,6.89-3.16,5.66,1.63C190,405.17,185.56,406.41,183.35,407.07Z" style="fill:#263238"></path><path d="M166,406.83c3.51,1.89,7.72,2.19,11.58,2.92.4.07.63-.33.59-.67a.12.12,0,0,0,.08-.17,23.78,23.78,0,0,0-8.47-8.92c-2.09-1.23-5.48-1.75-6.81.92C161.75,403.43,164,405.72,166,406.83Zm-1.72-3.35c-1.58-4.68,4-3,5.52-2.06a24.53,24.53,0,0,1,2.75,2.12,69.56,69.56,0,0,1,5.06,5.1c-1.87-.48-3.76-.79-5.65-1.19C169.74,407,165.19,406.07,164.31,403.48Z" style="fill:#263238"></path><path d="M152.47,453.52a6.44,6.44,0,1,1-6.44-6.44A6.43,6.43,0,0,1,152.47,453.52Z" style="fill:#263238"></path><circle cx="146.03" cy="453.52" r="2.56" style="fill:#3C4A49"></circle><circle cx="196.04" cy="458.46" r="6.44" style="fill:#263238"></circle><circle cx="196.04" cy="458.46" r="2.56" style="fill:#3C4A49"></circle><path d="M202.6,124.53c3.52,4.75,29.12,35.82,34.72,38.22,4.92,2.12,21.6,7.73,20.46-6.31-.74-9.12-36.12-34.54-51-40.42C200,113.32,195.23,114.57,202.6,124.53Z" style="fill:#f7a9a0"></path><path d="M208.29,154.43a40.88,40.88,0,0,0-7.14,1.51c-1.16.37-2.3.81-3.44,1.28-.57.23-1.14.44-1.71.65a6.59,6.59,0,0,1-1.84.44s0,.1,0,.1a10.56,10.56,0,0,0,1.78,0,11.24,11.24,0,0,0,1.69-.41c1.18-.37,2.34-.8,3.52-1.18,2.38-.77,4.75-1.54,7.17-2.1C208.43,154.64,208.4,154.41,208.29,154.43Z" style="fill:#263238"></path><path d="M214.26,157a44.28,44.28,0,0,0-6-.29c-1,0-2,.12-3,.25l-1.42.21c-.52.09-1,.26-1.55.34-.05,0-.05.11,0,.1.49,0,1,0,1.48,0l1.49-.06,3-.12c2-.1,4-.18,6-.2C214.37,157.16,214.36,157,214.26,157Z" style="fill:#263238"></path><path d="M215.13,157l3.4,17.24-54.2,0s5.75-41,19.89-55.18c7.07-7.08,15-6.21,19.87-.87,1.23,1.36,14.31,17.42,15.61,25.21C220.83,150.2,215.13,157,215.13,157Z" style="fill:#f7a9a0"></path><path d="M166.86,156l48.26.95h0c.27-.32,5.68-6.92,4.57-13.63-1.15-6.89-11.5-20.23-14.75-24.17.77,1.8,6.75,15.86,6.56,16.25s-13.86.43-14.24-.18-5.34-17.66-6-20.74c-.06-.3-.09-.47-.09-.47l-1.66.72s0,.15,0,.41c.15,2.84,1,20,.52,20.53s-8.5,6.79-10.64,7.67a13.64,13.64,0,0,1-8.6.15Z" style="fill:#263238"></path><path d="M203.89,117s9.07,18.12,9.17,19-6,4.63-8.07,4.41-7.56-1.61-8.68-2.69-3.6-22.85-4.12-23.58-2.65.57-2.65.57-.53,26.74-.68,28.57-3.28,16.93-4.65,17.79-10.27,2.66-11.63,1.45l-5.37-4.73-2.65,13.68,54-1.05L215.7,157s5.8-7.63,4.12-14.58-14.28-24.19-14.28-24.19Z" style="fill:#3C4A49"></path><path d="M207.27,153.17a56.51,56.51,0,0,0-8,1.71c-1.3.39-2.57.85-3.85,1.33-.63.25-1.27.47-1.91.68a8.22,8.22,0,0,1-2.07.49.05.05,0,0,0,0,.1,15.07,15.07,0,0,0,2-.13,15.27,15.27,0,0,0,1.89-.45c1.33-.39,2.63-.84,4-1.25,2.67-.82,5.33-1.63,8-2.25C207.44,153.37,207.4,153.15,207.27,153.17Z" style="fill:#263238"></path><path d="M214.12,155.28a59,59,0,0,0-6.78,0c-1.13.07-2.24.2-3.36.36-.54.08-1.07.16-1.6.26s-1.16.28-1.74.37c-.06,0-.06.11,0,.1.56-.07,1.13,0,1.69-.09l1.68-.12c1.12-.08,2.25-.15,3.37-.24,2.25-.18,4.49-.34,6.75-.44C214.25,155.46,214.23,155.28,214.12,155.28Z" style="fill:#263238"></path><path d="M192.4,115.22c.16,1.1,4.71,8.52,9.65,8.7,1.61,0,2.31-8.71,2.31-8.71l.2-.64,2.78-8.89L197.27,98l-1.47-1s-.6,2.49-1.32,5.59c0,.14-.06.28-.1.44s-.09.34-.12.5q-.18.69-.33,1.41c-.08.36-.16.7-.23,1.08s-.15.75-.23,1.13A59.57,59.57,0,0,0,192.4,115.22Z" style="fill:#f7a9a0"></path><path d="M194.48,102.6a18.89,18.89,0,0,0,10.07,12.27l2.79-9.05L197.27,98l-1.47-1S195.2,99.45,194.48,102.6Z" style="fill:#263238"></path><path d="M221.34,95.51C218.4,111.61,208.43,111.67,205,111c-3.15-.57-13.8-2.94-12.55-19.25s9.67-20,16.94-19.1S224.27,79.42,221.34,95.51Z" style="fill:#f7a9a0"></path><path d="M218.05,92.47A10.87,10.87,0,0,1,217,92a1.86,1.86,0,0,1-1-.68.59.59,0,0,1,.15-.7,1.48,1.48,0,0,1,1.48,0,2.21,2.21,0,0,1,1.16,1A.63.63,0,0,1,218.05,92.47Z" style="fill:#263238"></path><path d="M207.23,90.42a10.9,10.9,0,0,0,1.14.07,1.85,1.85,0,0,0,1.18-.16.59.59,0,0,0,.19-.69,1.47,1.47,0,0,0-1.3-.71,2.17,2.17,0,0,0-1.5.38A.63.63,0,0,0,207.23,90.42Z" style="fill:#263238"></path><path d="M208.6,94.18s-.1,0-.11.08c-.24,1.1-.7,2.32-1.78,2.43a0,0,0,0,0,0,.07C208,96.89,208.55,95.26,208.6,94.18Z" style="fill:#263238"></path><path d="M207.91,92.8c-1.73-.58-2.74,2.91-1.15,3.44S209.35,93.28,207.91,92.8Z" style="fill:#263238"></path><path d="M207.17,92.78c-.36.11-.76.37-1.14.3s-.65-.54-.83-1c0,0-.06,0-.07,0a1.31,1.31,0,0,0,.54,1.73c.63.29,1.27-.17,1.63-.79C207.37,93,207.31,92.74,207.17,92.78Z" style="fill:#263238"></path><path d="M215.24,95.57s.07.07.06.12c-.27,1.09-.41,2.39.51,3,0,0,0,.07,0,.06C214.61,98.28,214.8,96.56,215.24,95.57Z" style="fill:#263238"></path><path d="M216.47,94.64c1.8.26,1.16,3.83-.51,3.6S215,94.43,216.47,94.64Z" style="fill:#263238"></path><path d="M217.18,95c.25.24.46.64.8.72s.74-.24,1.06-.57c0,0,.05,0,.05,0-.11.69-.46,1.36-1.14,1.37s-1-.65-1-1.36C217,95.09,217.08,94.91,217.18,95Z" style="fill:#263238"></path><path d="M206.81,102.9c.17.34.3.77.68.93a2.88,2.88,0,0,0,1.24.12s.06,0,0,.07a1.49,1.49,0,0,1-1.55.12,1.19,1.19,0,0,1-.51-1.23C206.69,102.85,206.78,102.85,206.81,102.9Z" style="fill:#263238"></path><path d="M208.14,100.26a3.76,3.76,0,0,0,2.13,2.12,4.85,4.85,0,0,0,1.31.33l.25,0h.25a.26.26,0,0,0,.26-.2h0a.43.43,0,0,0,0-.11h0v-.09c.19-.83.37-2.11.37-2.11.27.21,1.68,1.22,1.74.78a57.19,57.19,0,0,0,.8-11.41.11.11,0,0,0-.21,0c-.62,3.48-.63,7-1.19,10.54a6.66,6.66,0,0,0-1.63-.87c-.13,0-.29,2.48-.41,2.84a.1.1,0,0,1,0,0,5.2,5.2,0,0,1-3.57-1.94C208.19,100.1,208.09,100.16,208.14,100.26Z" style="fill:#263238"></path><path d="M211.06,102.3a4.09,4.09,0,0,1-1.85.86,1.91,1.91,0,0,1-1.09-.18c-.73-.38-.58-1.1-.3-1.67a4.34,4.34,0,0,1,.56-.86A5.22,5.22,0,0,0,211.06,102.3Z" style="fill:#263238"></path><path d="M209.21,103.16a1.91,1.91,0,0,1-1.09-.18c-.73-.38-.58-1.1-.3-1.67A1.86,1.86,0,0,1,209.21,103.16Z" style="fill:#ff98b9"></path><path d="M193,91.64c3.82,1.33,9.44-9.83,10.11-11.21-.38.89-2.37,5.61-2.08,5.94a3.93,3.93,0,0,0,1.27.24h0a12.56,12.56,0,0,1,.81-1.65,8.11,8.11,0,0,1-.39,1.7c.24,0,.5,0,.78.08a14.72,14.72,0,0,1,1.77-3.49c.29-.41-.38,1.67-.64,3.61A48.43,48.43,0,0,1,215.22,89c.95.33,1.76.65,2.47,1a27.6,27.6,0,0,1,.95-2.61,15.28,15.28,0,0,1-.43,2.85c.38.17.73.34,1,.5.87-2,1.16-5.5,1.29-4.89a15,15,0,0,1,0,5.65c1.25.79,1.52,1.2,1.7.87a17.89,17.89,0,0,0-1-12.26c-3-6.28-12-11.06-19.92-6.29,0,0-5.48,1.15-8,5.47S190.82,90.86,193,91.64Z" style="fill:#263238"></path><path d="M194.75,93.48s-2.1-5.87-4.67-5.25-1.93,8.47.42,10.16a2.77,2.77,0,0,0,4-.46Z" style="fill:#f7a9a0"></path><path d="M190.32,90.48s-.07,0,0,.06c1.64,1.25,2.14,3.22,2.34,5.18a1.54,1.54,0,0,0-2.1-1c-.05,0,0,.11,0,.11a1.72,1.72,0,0,1,1.65,1.07,8.21,8.21,0,0,1,.46,1.7c0,.19.37.18.35,0v0C193.7,95.18,192.77,91.4,190.32,90.48Z" style="fill:#263238"></path><path d="M186.82,128.88C183.2,136,163.67,162,163.37,164.56c-.17,1.46,2.89,3.95,3,5,.29,4.15-6.57,34.93-10.55,32.73-5.24-2.89-21.41-27.49-20.44-39.24s41.24-42.23,48.16-45.76C192.39,112.7,189.08,124.49,186.82,128.88Z" style="fill:#f7a9a0"></path><path d="M177.36,143.72a66.67,66.67,0,0,1,3.88-6.39,68.17,68.17,0,0,1,4.51-6,65.46,65.46,0,0,1-3.88,6.39A68.17,68.17,0,0,1,177.36,143.72Z" style="fill:#263238"></path><path d="M185.42,134.21a5.45,5.45,0,0,1-1.56,2.06,6,6,0,0,1-2.28,1.23l1.95-1.61c.33-.26.63-.54.95-.82S185.08,134.5,185.42,134.21Z" style="fill:#263238"></path><path d="M171.41,207.18c2.68-2.52-1.83-4.24-1.83-4.24s7.09.91,8.86-2.76-3.84-5.44-4.23-5.58c.37.05,6.91.72,8.3-3.16s-4.42-5-4.8-5c.36-.07,5.21-1.07,5.6-4.25.67-5.47-13.46-3.82-17-6.53,0,0,.25-7.11.33-7.33,0,0-1.11,2.95-3.45,4-2.89,1.35-5.55,2.28-6.54,3.94a4,4,0,0,0,.31,4.81s-3.91.17-5.1,3.18c-.61,1.55,1.33,3.9,1.33,3.9s-3.12.27-4,3c-.72,2.19,1.33,4.21,1.33,4.21s-2.87,1.64-2.88,4.12C147.6,204.52,165.65,212.58,171.41,207.18Z" style="fill:#f7a9a0"></path><path d="M150.79,195.77a.05.05,0,1,0-.06.08,34.32,34.32,0,0,0,19.09,7.21c.22,0,.33-.35.08-.41A70.38,70.38,0,0,1,150.79,195.77Z" style="fill:#263238"></path><path d="M153.09,188.17c-.07,0-.13.07-.07.12,5.47,4.2,13.52,7.23,21.31,6.57.27,0,.48-.31.18-.31C169.29,194.6,158.68,191.27,153.09,188.17Z" style="fill:#263238"></path><path d="M178.23,186.18c-7.49.35-14.33-1.74-21.06-4.9-.08,0-.13.08-.07.14,2.87,2.44,7.36,4,11,4.93a19.74,19.74,0,0,0,10.18.09C178.38,186.41,178.39,186.18,178.23,186.18Z" style="fill:#263238"></path><path d="M150.32,195.41c-1.31-1.19-2.33-2.79-1.86-4.62a3.56,3.56,0,0,1,1.43-2,6.18,6.18,0,0,1,2.83-.73,4.65,4.65,0,0,1-.91-5.19,3.5,3.5,0,0,1,2-1.55,11.9,11.9,0,0,1,3-.36,4.12,4.12,0,0,1-1.44-3.41,4.45,4.45,0,0,1,2.23-3.4,20.71,20.71,0,0,1,4.57-1.87,11.58,11.58,0,0,0,2.32-1.06,4.66,4.66,0,0,0,1.72-2.13c.07-.15.09,0,0,.13a6.08,6.08,0,0,1-1,1.61,8,8,0,0,1-1.46,1.33,33.37,33.37,0,0,1-4.31,2.05,6.37,6.37,0,0,0-3,2.79,3.81,3.81,0,0,0,.51,4c.05.05,0,.15-.09.16a10.87,10.87,0,0,0-2.62.74,3.69,3.69,0,0,0-1.68,1.46,4.9,4.9,0,0,0,.54,4.86,8.51,8.51,0,0,0-2.69,1.18,3.62,3.62,0,0,0-1.09,1.69,4.24,4.24,0,0,0,1.14,4.29.13.13,0,0,1,0,0h0v0a.07.07,0,0,1,0,.06h0s-.91.57-1,.58,0,0,0-.06A7.64,7.64,0,0,1,150.32,195.41Z" style="fill:#263238"></path><path d="M203.67,153.9c-3.28,1,4,27.08,9,26.32,24.19-3.67,40.17-12.6,43.16-16.2,3.92-4.73,1.3-11.93-2.12-14C248.76,146.93,230.75,145.84,203.67,153.9Z" style="fill:#f7a9a0"></path><path d="M212.61,151.49c2.22-.75,4.49-1.36,6.76-1.92s4.58-1,6.89-1.43,4.65-.7,7-.84a30.61,30.61,0,0,1,7,.2c-.59,0-1.17,0-1.75,0l-1.75.08c-1.16.08-2.33.16-3.48.31-2.32.26-4.63.59-6.92,1s-4.6.81-6.89,1.25Z" style="fill:#263238"></path><path d="M206.3,153.4a166.88,166.88,0,0,0-16.5,3.93c-3.85,1.21-12.06,5.47-14.47,7.65-3.62,3.26-16.65,19.2-12.86,22.44,3.44,2.94,12.9-12.18,12.9-12.18s-10.89,14.41-6.11,17.19,13.21-15.73,13.21-15.73-10.86,15.06-5.47,17.14c4.07,1.57,12.64-14.76,12.64-14.76s-9.25,13-5.13,14.8c4.56,2,13.41-12.58,13.41-12.58,11.24,2.8,17.52-.22,21.87-3.1C220.84,177.51,206.3,153.4,206.3,153.4Z" style="fill:#f7a9a0"></path><path d="M178.82,170c-1.34,1.64-2.71,3.3-3.9,5.06s-2.32,3.56-3.34,5.43a36,36,0,0,0-3.28,7.62c1.76-4.61,5.92-11,7.12-12.74s2.28-3.57,3.47-5.33C178.92,170,178.85,170,178.82,170Z" style="fill:#263238"></path><path d="M185.25,174.2c-1.62,2.17-3.31,4.28-4.83,6.52s-2.77,4.5-4.13,6.83c-.1.18,0,.18.14,0,1.45-2.28,3-4.27,4.45-6.53s2.87-4.59,4.43-6.79C185.33,174.2,185.28,174.17,185.25,174.2Z" style="fill:#263238"></path><path d="M191.3,176.77a60.7,60.7,0,0,0-6.64,10.54c-.09.19.08.16.19,0,2.13-3.54,3.79-6.34,6.56-10.43C191.45,176.8,191.35,176.7,191.3,176.77Z" style="fill:#263238"></path><path d="M166,176.44a43.74,43.74,0,0,0-2.64,4.6,19.76,19.76,0,0,0-1,2.43A6.27,6.27,0,0,0,162,186a1.76,1.76,0,0,0,.44,1.06,1.79,1.79,0,0,0,1,.5,3.79,3.79,0,0,0,2.3-.72,16.61,16.61,0,0,0,3.76-3.54l2.05-2.52-1.46,2.9a21.79,21.79,0,0,0-1.6,4.13,8.31,8.31,0,0,0-.3,2.14,2.28,2.28,0,0,0,.66,1.78,2.5,2.5,0,0,0,1.86.52,4.38,4.38,0,0,0,1.93-.79,12.55,12.55,0,0,0,3.09-3.12l1-1.43-.56,1.66a10.09,10.09,0,0,0-.56,2.66c0,.86.09,1.9.93,2.21a3.22,3.22,0,0,0,2.6-.25,8.53,8.53,0,0,0,2.21-1.67,7.88,7.88,0,0,1-2.13,1.81,3.4,3.4,0,0,1-2.78.38,1.66,1.66,0,0,1-1.05-1.05,4,4,0,0,1-.2-1.45,10.36,10.36,0,0,1,.49-2.81l.46.23A12.81,12.81,0,0,1,173,192a5.16,5.16,0,0,1-2.21.91,3.19,3.19,0,0,1-2.39-.65,3,3,0,0,1-.93-2.3,9,9,0,0,1,.3-2.33,20.87,20.87,0,0,1,1.7-4.28l.58.38a16.87,16.87,0,0,1-4,3.65,4.16,4.16,0,0,1-2.71.72,2.3,2.3,0,0,1-1.31-.69,2.37,2.37,0,0,1-.54-1.36,6.76,6.76,0,0,1,.48-2.69,19.17,19.17,0,0,1,1.13-2.43A37.47,37.47,0,0,1,166,176.44Z" style="fill:#263238"></path><polygon points="205.87 159.06 217 154.76 216.53 153.56 211.03 148.79 199.91 153.09 200.37 154.3 205.87 159.06" style="fill:#263238"></polygon><polygon points="205.41 157.86 216.53 153.56 211.03 148.79 199.91 153.09 205.41 157.86" style="fill:#37474f"></polygon><polyline points="216.53 153.56 211.03 148.79 199.91 153.09" style="fill:#37474f"></polyline><polygon points="221.05 179.32 228.36 177.21 217.36 156.65 217 154.76 205.87 159.06 208.39 160.31 221.05 179.32" style="fill:#3C4A49"></polygon></g><g id="freepik--Device--inject-11"><rect x="304.89" y="147.45" width="90.76" height="107.72" style="fill:#455a64"></rect><rect x="300.13" y="162.97" width="4.76" height="46.07" style="fill:#3C4A49"></rect><rect x="300.13" y="221.11" width="4.76" height="18.55" style="fill:#3C4A49"></rect><rect x="395.63" y="166.8" width="4.76" height="18.55" style="fill:#3C4A49"></rect><rect x="395.63" y="191.72" width="4.76" height="29.95" style="fill:#3C4A49"></rect><rect x="313.48" y="157.64" width="73.59" height="87.34" style="fill:#263238"></rect><polygon points="325.93 322.9 374.61 322.9 380.89 255.18 319.65 255.18 325.93 322.9" style="fill:#3C4A49"></polygon><polygon points="380.89 255.17 380 264.8 320.62 265.64 319.64 255.17 380.89 255.17" style="fill:#050400;opacity:0.2"></polygon><polygon points="374.61 79.73 325.93 79.73 319.65 147.45 380.89 147.45 374.61 79.73" style="fill:#3C4A49"></polygon><polygon points="380.89 147.45 319.64 147.45 320.44 138.93 380.02 138.07 380.89 147.45" style="fill:#050400;opacity:0.2"></polygon></g><g id="freepik--Notifications--inject-11"><rect x="236.11" y="266.2" width="73.78" height="87.57" style="fill:#263238"></rect><path d="M302.78,277.1H290.66v-5.6h12.12Zm-11.5-.61h10.88v-4.38H291.28Z" style="fill:#fff"></path><rect x="291.67" y="272.45" width="7.81" height="3.7" style="fill:#fff"></rect><rect x="302.79" y="272.8" width="1.08" height="3" style="fill:#fff"></rect><rect x="247.49" y="271.5" width="1.26" height="5.61" style="fill:#fff"></rect><rect x="245.7" y="272.5" width="1.26" height="4.6" style="fill:#fff"></rect><rect x="243.92" y="273.51" width="1.26" height="3.59" style="fill:#fff"></rect><rect x="242.13" y="274.52" width="1.26" height="2.59" style="fill:#fff"></rect><rect x="242.13" y="283.89" width="61.73" height="13.11" style="fill:#455a64"></rect><path d="M259.7,290.45a2.44,2.44,0,0,1,3.94-1.86.38.38,0,0,1,.06.52.37.37,0,0,1-.52.08,1.66,1.66,0,0,0-1.07-.37,1.74,1.74,0,0,0-1.18.48,1.61,1.61,0,0,0-.48,1.15,1.59,1.59,0,0,0,.48,1.14,1.74,1.74,0,0,0,1.18.48,1.73,1.73,0,0,0,1.07-.36.38.38,0,0,1,.52.07.39.39,0,0,1-.06.53,2.49,2.49,0,0,1-1.53.51A2.4,2.4,0,0,1,259.7,290.45Z" style="fill:#fff"></path><path d="M265.11,288.2a.38.38,0,0,1,.37.37v3.89a.37.37,0,0,1-.37.36.36.36,0,0,1-.36-.36v-3.89A.37.37,0,0,1,265.11,288.2Z" style="fill:#fff"></path><path d="M266.41,291.17a1.64,1.64,0,0,1,1.61-1.65,1.58,1.58,0,0,1,1.59,1.53v0s0,0,0,.05a.32.32,0,0,1-.34.27h-2.1a.83.83,0,0,0,.23.43,1,1,0,0,0,.63.3,1.08,1.08,0,0,0,.68-.16.37.37,0,0,1,.5,0,.3.3,0,0,1,0,.42,1.66,1.66,0,0,1-2.79-1.21Zm.72-.32H269a1.06,1.06,0,0,0-1-.7A.92.92,0,0,0,267.13,290.85Z" style="fill:#fff"></path><path d="M273.45,291.18v1.29a.35.35,0,0,1-.35.35.37.37,0,0,1-.35-.28,1.53,1.53,0,0,1-.87.28,1.55,1.55,0,0,1-1.12-.48,1.67,1.67,0,0,1-.45-1.16,1.62,1.62,0,0,1,.45-1.16,1.49,1.49,0,0,1,1.12-.5,1.47,1.47,0,0,1,.87.29.37.37,0,0,1,.35-.29.36.36,0,0,1,.35.36Zm-.7,0a1,1,0,0,0-.26-.68.84.84,0,0,0-1.23,0,1,1,0,0,0-.25.68,1,1,0,0,0,.25.68.88.88,0,0,0,1.23,0A1,1,0,0,0,272.75,291.18Z" style="fill:#fff"></path><path d="M276.77,289.87a.35.35,0,0,1-.35.35.59.59,0,0,0-.39.13,1,1,0,0,0-.31.31,2.44,2.44,0,0,0-.27.56v1.25a.36.36,0,0,1-.71,0v-2.6a.36.36,0,0,1,.71,0v.05a.83.83,0,0,1,.14-.13,1.39,1.39,0,0,1,.83-.26A.34.34,0,0,1,276.77,289.87Z" style="fill:#fff"></path><path d="M282,291.73h-1.6l-.32.86a.38.38,0,0,1-.35.23l-.12,0a.37.37,0,0,1-.22-.48l1.46-3.88a.38.38,0,0,1,.7,0l1.45,3.88a.37.37,0,0,1-.21.48l-.13,0a.38.38,0,0,1-.34-.23Zm-.27-.72-.53-1.42L280.7,291Z" style="fill:#fff"></path><path d="M284.29,288.2a.37.37,0,0,1,.36.37v3.89a.36.36,0,0,1-.36.36.37.37,0,0,1-.37-.36v-3.89A.38.38,0,0,1,284.29,288.2Z" style="fill:#fff"></path><path d="M285.93,288.2a.38.38,0,0,1,.37.37v3.89a.37.37,0,0,1-.37.36.36.36,0,0,1-.36-.36v-3.89A.37.37,0,0,1,285.93,288.2Z" style="fill:#fff"></path><rect x="242.13" y="302.56" width="61.73" height="9.12" style="fill:#455a64"></rect><rect x="242.13" y="311.68" width="61.73" height="19.11" style="fill:#455a64;opacity:0.5"></rect><rect x="243.98" y="300.75" width="7.68" height="7.68" style="fill:#3C4A49"></rect><path d="M250.32,304.43a2.53,2.53,0,1,1-2.51-2.18A2.36,2.36,0,0,1,250.32,304.43Z" style="fill:#fff"></path><polygon points="246 305.66 245.54 306.92 247.14 306.43 246 305.66" style="fill:#fff"></polygon><path d="M272.87,305.43v3.5a.33.33,0,0,1-.66,0v-2.5l-.85,1.19a.33.33,0,0,1-.27.14h0a.32.32,0,0,1-.27-.14l-.85-1.19v2.5a.34.34,0,0,1-.34.33.32.32,0,0,1-.32-.33v-3.5a.32.32,0,0,1,.32-.33h0a.31.31,0,0,1,.26.14l1.19,1.64,1.18-1.64a.31.31,0,0,1,.26-.14h0A.34.34,0,0,1,272.87,305.43Z" style="fill:#fff"></path><path d="M274,308.93v-3.5a.32.32,0,0,1,.32-.33h2a.32.32,0,0,1,.32.33.33.33,0,0,1-.32.33h-1.62v1.09h1.39a.33.33,0,0,1,0,.66h-1.39v1.09h1.62a.33.33,0,0,1,0,.66h-2A.32.32,0,0,1,274,308.93Z" style="fill:#fff"></path><path d="M277.41,308.23a.3.3,0,0,1,.43,0,2,2,0,0,0,1.14.45,1.27,1.27,0,0,0,.74-.22A.54.54,0,0,0,280,308a.29.29,0,0,0-.06-.19.56.56,0,0,0-.17-.18,2.23,2.23,0,0,0-.82-.28h0a4.09,4.09,0,0,1-.77-.23,1.32,1.32,0,0,1-.55-.47.91.91,0,0,1-.14-.49,1.1,1.1,0,0,1,.48-.86,1.77,1.77,0,0,1,1-.32,2.27,2.27,0,0,1,1.29.48.31.31,0,0,1,.09.42.32.32,0,0,1-.43.09,1.72,1.72,0,0,0-.95-.38,1.13,1.13,0,0,0-.67.2.47.47,0,0,0-.22.37.29.29,0,0,0,0,.17.6.6,0,0,0,.16.16,2.15,2.15,0,0,0,.74.26h0a3.16,3.16,0,0,1,.82.25,1.39,1.39,0,0,1,.6.49,1,1,0,0,1,.14.51,1.18,1.18,0,0,1-.51.92,1.88,1.88,0,0,1-1.1.33,2.51,2.51,0,0,1-1.52-.59A.31.31,0,0,1,277.41,308.23Z" style="fill:#fff"></path><path d="M281.31,308.23a.32.32,0,0,1,.44,0,1.92,1.92,0,0,0,1.13.45,1.31,1.31,0,0,0,.75-.22.55.55,0,0,0,.25-.42.36.36,0,0,0-.05-.19.61.61,0,0,0-.18-.18,2.11,2.11,0,0,0-.81-.28h0a3.78,3.78,0,0,1-.76-.23,1.29,1.29,0,0,1-.56-.47,1,1,0,0,1-.13-.49,1.09,1.09,0,0,1,.47-.86,1.77,1.77,0,0,1,1-.32,2.34,2.34,0,0,1,1.3.48.31.31,0,0,1-.34.51,1.75,1.75,0,0,0-1-.38,1.1,1.1,0,0,0-.66.2.46.46,0,0,0-.23.37.29.29,0,0,0,0,.17.6.6,0,0,0,.16.16,2.24,2.24,0,0,0,.74.26h0a3.28,3.28,0,0,1,.82.25,1.42,1.42,0,0,1,.59.49,1,1,0,0,1,.14.51,1.15,1.15,0,0,1-.51.92,1.88,1.88,0,0,1-1.1.33,2.51,2.51,0,0,1-1.52-.59A.31.31,0,0,1,281.31,308.23Z" style="fill:#fff"></path><path d="M287.44,308.28H286l-.29.77a.35.35,0,0,1-.31.21l-.12,0a.33.33,0,0,1-.19-.42l1.31-3.5a.33.33,0,0,1,.32-.21.31.31,0,0,1,.31.21l1.31,3.5a.33.33,0,0,1-.19.42l-.11,0a.34.34,0,0,1-.31-.21Zm-.24-.65-.48-1.28-.48,1.28Z" style="fill:#fff"></path><path d="M288.78,307.13a2.19,2.19,0,0,1,3.55-1.68.34.34,0,0,1,.07.48.34.34,0,0,1-.48.05,1.55,1.55,0,0,0-.94-.32,1.49,1.49,0,0,0-1.07.43,1.4,1.4,0,0,0,0,2.06,1.49,1.49,0,0,0,1.07.43,1.72,1.72,0,0,0,.81-.22v-.82h-.85a.34.34,0,0,1-.34-.34.34.34,0,0,1,.34-.33h1.18a.33.33,0,0,1,.35.33v1.32a.36.36,0,0,1,0,.1,0,0,0,0,1,0,0h0a.27.27,0,0,1-.11.15,2.22,2.22,0,0,1-1.35.46A2.16,2.16,0,0,1,288.78,307.13Z" style="fill:#fff"></path><path d="M293.81,308.93v-3.5a.32.32,0,0,1,.32-.33h1.95a.32.32,0,0,1,.32.33.33.33,0,0,1-.32.33h-1.61v1.09h1.38a.33.33,0,0,1,0,.66h-1.38v1.09h1.61a.33.33,0,0,1,0,.66h-1.95A.32.32,0,0,1,293.81,308.93Z" style="fill:#fff"></path><path d="M297.2,308.23a.31.31,0,0,1,.44,0,1.92,1.92,0,0,0,1.13.45,1.27,1.27,0,0,0,.74-.22.54.54,0,0,0,.26-.42.29.29,0,0,0-.06-.19.47.47,0,0,0-.17-.18,2.23,2.23,0,0,0-.82-.28h0a4.09,4.09,0,0,1-.77-.23,1.32,1.32,0,0,1-.55-.47.91.91,0,0,1-.14-.49,1.1,1.1,0,0,1,.48-.86,1.77,1.77,0,0,1,1-.32,2.27,2.27,0,0,1,1.29.48.31.31,0,0,1,.09.42.32.32,0,0,1-.43.09,1.72,1.72,0,0,0-.95-.38,1.13,1.13,0,0,0-.67.2.47.47,0,0,0-.22.37.29.29,0,0,0,0,.17.6.6,0,0,0,.16.16,2.15,2.15,0,0,0,.74.26h0a3,3,0,0,1,.82.25,1.39,1.39,0,0,1,.6.49,1,1,0,0,1,.14.51,1.15,1.15,0,0,1-.51.92,1.88,1.88,0,0,1-1.1.33,2.51,2.51,0,0,1-1.52-.59A.31.31,0,0,1,297.2,308.23Z" style="fill:#fff"></path><path d="M247.86,322.44h-2v1.71a.13.13,0,0,1-.14.13.14.14,0,0,1-.14-.13v-3.69a.14.14,0,0,1,.14-.13.13.13,0,0,1,.14.13v1.71h2v-1.71a.13.13,0,0,1,.13-.13.13.13,0,0,1,.14.13v3.69a.13.13,0,0,1-.14.13.13.13,0,0,1-.13-.13Z" style="fill:#fff"></path><path d="M249.5,320.74a.13.13,0,0,1,.14-.13.14.14,0,0,1,.14.13v.13a.15.15,0,0,1-.14.15.15.15,0,0,1-.14-.15Zm0,.91a.14.14,0,0,1,.14-.14.14.14,0,0,1,.14.14v2.5a.14.14,0,0,1-.14.13.13.13,0,0,1-.14-.13Z" style="fill:#fff"></path><path d="M251.08,320.46a.14.14,0,0,1,.14-.13.13.13,0,0,1,.14.13v2.84a.14.14,0,0,1-.14.14.14.14,0,0,1-.14-.14Zm0,3.55a.14.14,0,0,1,.14-.13.13.13,0,0,1,.14.13v.14a.13.13,0,0,1-.14.13.14.14,0,0,1-.14-.13Z" style="fill:#fff"></path><path d="M245.56,327.46a.07.07,0,0,1,0-.09.09.09,0,0,1,.1,0,.47.47,0,0,0,.33.14.51.51,0,0,0,.34-.14.48.48,0,0,0,.14-.34.47.47,0,0,0-.14-.33.44.44,0,0,0-.34-.14.43.43,0,0,0-.33.14.07.07,0,0,1-.09,0l0,0h0v0h0l.09-.72a.08.08,0,0,1,0-.05h.87a.06.06,0,0,1,0,.12h-.78l-.06.53a.64.64,0,0,1,.3-.08.6.6,0,0,1,.43.18.57.57,0,0,1,.17.42.59.59,0,0,1-.17.43.6.6,0,0,1-.86,0Z" style="fill:#fff"></path><path d="M249,326.9a.4.4,0,0,0-.39-.39.39.39,0,0,0-.38.39v.68h0l0,0h-.09v-.68a.39.39,0,1,0-.77,0v.68a.05.05,0,0,1,0,.05h0s0,0-.05-.05h0v-1.13a.06.06,0,0,1,.06-.06.06.06,0,0,1,.06.06v.12a.5.5,0,0,1,.39-.18.49.49,0,0,1,.44.27.52.52,0,0,1,.45-.27.51.51,0,0,1,.51.51v.68a.07.07,0,0,1-.07.06.06.06,0,0,1-.05-.06Z" style="fill:#fff"></path><path d="M248,314.71h-.9v3.05a.32.32,0,0,1-.63,0v-3.05h-.9a.32.32,0,0,1-.32-.32.32.32,0,0,1,.32-.32H248a.32.32,0,0,1,.32.32A.33.33,0,0,1,248,314.71Z" style="fill:#fff"></path><path d="M248.65,317.65a1.39,1.39,0,0,1-.39-1,1.44,1.44,0,0,1,.39-1,1.33,1.33,0,0,1,1-.43,1.27,1.27,0,0,1,1,.43,1.45,1.45,0,0,1,.4,1,1.4,1.4,0,0,1-.4,1,1.28,1.28,0,0,1-1,.44A1.34,1.34,0,0,1,248.65,317.65Zm.23-1a.92.92,0,0,0,.2.6.79.79,0,0,0,.55.21.74.74,0,0,0,.53-.21.93.93,0,0,0,0-1.2.84.84,0,0,0-.53-.21.89.89,0,0,0-.55.21A.92.92,0,0,0,248.88,316.65Z" style="fill:#fff"></path><path d="M254.35,316.4h0v1.36a.31.31,0,0,1-.61,0v-1.36h0a.59.59,0,0,0-.59-.57.58.58,0,0,0-.58.58v1.4h0s0,0,0,0v0a.34.34,0,0,1-.29.18h-.06a.3.3,0,0,1-.24-.29v-1.36h0v-.89a.31.31,0,0,1,.58-.13,1.17,1.17,0,0,1,.61-.17,1.14,1.14,0,0,1,.89.39,1.16,1.16,0,0,1,.9-.39,1.19,1.19,0,0,1,1.19,1.19v1.36a.31.31,0,0,1-.61,0v-1.36a.59.59,0,0,0-.58-.58A.58.58,0,0,0,254.35,316.4Z" style="fill:#fff"></path></g><g id="freepik--Music--inject-11"><rect x="313.37" y="157.53" width="73.78" height="87.57" style="fill:#263238"></rect><rect x="323.5" y="210.5" width="53.52" height="0.27" style="fill:#a6a6a6"></rect><rect x="323.5" y="210.5" width="11.6" height="0.27" style="fill:#3C4A49"></rect><path d="M335.6,210.63a.77.77,0,1,1-.77-.77A.77.77,0,0,1,335.6,210.63Z" style="fill:#3C4A49"></path><path d="M323.6,212.21a.66.66,0,0,1,.11-.38.37.37,0,0,1,.29-.18.35.35,0,0,1,.29.18.66.66,0,0,1,.11.38.65.65,0,0,1-.11.37.35.35,0,0,1-.29.18.37.37,0,0,1-.29-.18A.65.65,0,0,1,323.6,212.21Zm.63,0a.52.52,0,0,0-.08-.28.16.16,0,0,0-.3,0,.52.52,0,0,0-.07.28.58.58,0,0,0,.07.28.17.17,0,0,0,.3,0A.58.58,0,0,0,324.23,212.21Z" style="fill:#a6a6a6"></path><path d="M324.87,211.91a.11.11,0,0,1,.12.11.12.12,0,0,1-.12.12.12.12,0,0,1-.12-.12A.12.12,0,0,1,324.87,211.91Zm0,.62a.12.12,0,0,1,.12.12.12.12,0,0,1-.12.12.12.12,0,0,1-.12-.12A.13.13,0,0,1,324.87,212.53Z" style="fill:#a6a6a6"></path><path d="M325.94,212.46a.09.09,0,0,1-.09.09h0v.12a.09.09,0,1,1-.18,0v-.12h-.49a.07.07,0,0,1-.06,0,.08.08,0,0,1,0-.12l.58-.72h.16v.64h0A.09.09,0,0,1,325.94,212.46Zm-.28-.47-.31.39h.31Z" style="fill:#a6a6a6"></path><path d="M326.88,212.38a.38.38,0,1,1-.75,0,.36.36,0,0,1,.17-.31.23.23,0,0,1-.06-.16.27.27,0,0,1,.27-.26.26.26,0,0,1,.25.26.22.22,0,0,1-.05.16A.38.38,0,0,1,326.88,212.38Zm-.17,0a.2.2,0,0,0-.2-.2.2.2,0,0,0-.21.2.21.21,0,1,0,.41,0Zm-.29-.47a.09.09,0,0,0,.09.09.09.09,0,0,0,.08-.09.09.09,0,0,0-.08-.08A.09.09,0,0,0,326.42,211.91Z" style="fill:#a6a6a6"></path><path d="M373.3,212.28a.1.1,0,0,1,.1-.1h.29a.1.1,0,0,1,.1.1.1.1,0,0,1-.1.09h-.29A.1.1,0,0,1,373.3,212.28Z" style="fill:#a6a6a6"></path><path d="M374.53,212.09a.39.39,0,0,1,.11.27.43.43,0,0,1-.11.28.39.39,0,0,1-.56,0,.09.09,0,0,1,0-.12.09.09,0,0,1,.13,0,.2.2,0,0,0,.15.06.22.22,0,0,0,.15-.06.25.25,0,0,0,.06-.16.22.22,0,0,0-.06-.15.2.2,0,0,0-.15-.06.07.07,0,0,1-.06,0h0a.09.09,0,0,1,0-.13l.16-.16h-.25a.09.09,0,0,1,0-.18h.46a.09.09,0,0,1,.09.09s0,0,0,0v0l-.2.2A.28.28,0,0,1,374.53,212.09Z" style="fill:#a6a6a6"></path><path d="M375,211.91a.11.11,0,0,1,.12.11.12.12,0,0,1-.12.12.12.12,0,0,1-.12-.12A.12.12,0,0,1,375,211.91Zm0,.62a.12.12,0,0,1,.12.12.12.12,0,0,1-.12.12.12.12,0,0,1-.12-.12A.13.13,0,0,1,375,212.53Z" style="fill:#a6a6a6"></path><path d="M376,212.67a.09.09,0,0,1-.09.09h-.56a.07.07,0,0,1-.06,0,.08.08,0,0,1,0-.12l.47-.43a.21.21,0,0,0,.07-.15.16.16,0,0,0-.06-.13.18.18,0,0,0-.15-.07.24.24,0,0,0-.14,0l0,.05a.09.09,0,0,1-.13,0,.08.08,0,0,1,0-.12l.05-.05a.39.39,0,0,1,.25-.1.39.39,0,0,1,.28.13.35.35,0,0,1,.1.25.36.36,0,0,1-.12.28l-.3.27h.33A.09.09,0,0,1,376,212.67Z" style="fill:#a6a6a6"></path><path d="M376.91,212.67a.09.09,0,0,1-.09.09h-.56a.07.07,0,0,1-.06,0,.08.08,0,0,1,0-.12l.47-.43a.2.2,0,0,0,.06-.15.15.15,0,0,0-.05-.13.18.18,0,0,0-.15-.07.24.24,0,0,0-.14,0l-.05.05a.09.09,0,1,1-.11-.13l0-.05a.39.39,0,0,1,.25-.1.39.39,0,0,1,.28.13.35.35,0,0,1,.1.25.34.34,0,0,1-.13.28l-.29.27h.33A.09.09,0,0,1,376.91,212.67Z" style="fill:#a6a6a6"></path><circle cx="332.35" cy="225.86" r="5.83" style="fill:#3C4A49;opacity:0.30000000000000004"></circle><circle cx="368.17" cy="225.86" r="5.83" style="fill:#3C4A49;opacity:0.30000000000000004"></circle><polygon points="368.17 227.65 368.17 224.07 371.84 225.86 368.17 227.65" style="fill:#3C4A49"></polygon><polygon points="365.24 227.65 365.24 224.07 368.91 225.86 365.24 227.65" style="fill:#3C4A49"></polygon><polygon points="332.35 224.07 332.35 227.65 328.68 225.86 332.35 224.07" style="fill:#3C4A49"></polygon><polygon points="335.29 224.07 335.29 227.65 331.62 225.86 335.29 224.07" style="fill:#3C4A49"></polygon><rect x="347.11" y="222.06" width="2.23" height="7.59" style="fill:#3C4A49"></rect><rect x="351.18" y="222.06" width="2.23" height="7.59" style="fill:#3C4A49"></rect><path d="M350.26,234.66a8.8,8.8,0,1,1,8.8-8.8A8.81,8.81,0,0,1,350.26,234.66Zm0-17.1a8.3,8.3,0,1,0,8.3,8.3A8.31,8.31,0,0,0,350.26,217.56Z" style="fill:#3C4A49"></path><rect x="337.57" y="173.64" width="25.39" height="25.39" style="fill:#3C4A49"></rect><path d="M348.38,192.38A2.39,2.39,0,1,1,346,190,2.39,2.39,0,0,1,348.38,192.38Z" style="fill:#fff"></path><rect x="346.56" y="181.46" width="1.82" height="10.89" style="fill:#fff"></rect><path d="M356.08,190a2.38,2.38,0,1,1-2.38-2.38A2.38,2.38,0,0,1,356.08,190Z" style="fill:#fff"></path><rect x="354.26" y="180.02" width="1.82" height="9.94" style="fill:#fff"></rect><polygon points="356.08 180.05 346.56 183.06 346.56 181.46 356.08 178.45 356.08 180.05" style="fill:#fff"></polygon><polygon points="356.08 183.06 346.56 186.08 346.56 184.48 356.08 181.46 356.08 183.06" style="fill:#fff"></polygon></g><g id="freepik--heart-rate--inject-11"><rect x="235.99" y="48.69" width="73.78" height="87.57" style="fill:#263238"></rect><path d="M302.66,59.59H290.55V54h12.11ZM291.17,59h10.88V54.6H291.17Z" style="fill:#fff"></path><rect x="291.56" y="54.94" width="7.81" height="3.7" style="fill:#fff"></rect><rect x="302.67" y="55.29" width="1.08" height="3" style="fill:#fff"></rect><rect x="247.37" y="53.98" width="1.26" height="5.61" style="fill:#fff"></rect><rect x="245.59" y="54.99" width="1.26" height="4.6" style="fill:#fff"></rect><rect x="243.8" y="56" width="1.26" height="3.59" style="fill:#fff"></rect><rect x="242.02" y="57.01" width="1.26" height="2.59" style="fill:#fff"></rect><path d="M272.59,63.6a21,21,0,1,0,21,20.95A21,21,0,0,0,272.59,63.6Zm0,35.49a14.54,14.54,0,1,1,14.54-14.54A14.53,14.53,0,0,1,272.59,99.09Z" style="fill:#3C4A49"></path><path d="M272.59,63.6a21,21,0,1,0,21,20.95A21,21,0,0,0,272.59,63.6Zm0,35.49a14.54,14.54,0,1,1,14.54-14.54A14.53,14.53,0,0,1,272.59,99.09Z" style="fill:#050400;opacity:0.2"></path><path d="M272.59,63.6V70a14.54,14.54,0,1,1-14.53,14.54,14.3,14.3,0,0,1,1.65-6.71l-5.69-3a20.63,20.63,0,0,0-2.38,9.68A21,21,0,1,0,272.59,63.6Z" style="fill:#3C4A49"></path><path d="M257.2,115.23a4.29,4.29,0,0,1,8.56-.45.06.06,0,0,0,0,0c0,.34,0,.67,0,1a10.41,10.41,0,0,1-.62,3.62,6.16,6.16,0,0,1-2.28,3,5,5,0,0,1-2.65.83,1,1,0,0,1-1-.93,1,1,0,0,1,1-1,3.28,3.28,0,0,0,1.66-.49,3.63,3.63,0,0,0,1.11-1.24,3.29,3.29,0,0,0,.23-.46,4.12,4.12,0,0,1-1.69.35A4.29,4.29,0,0,1,257.2,115.23Zm2,0a2.35,2.35,0,0,0,2.34,2.33,2.33,2.33,0,1,0-2.34-2.33Z" style="fill:#fff"></path><path d="M268.52,117.14a7.58,7.58,0,0,1,1.21-4.23,3.72,3.72,0,0,1,6.55,0,8.1,8.1,0,0,1,0,8.45,3.72,3.72,0,0,1-6.55,0A7.62,7.62,0,0,1,268.52,117.14Zm7,0a5.9,5.9,0,0,0-.85-3.15,2.06,2.06,0,0,0-1.65-1.08,2.13,2.13,0,0,0-1.67,1.08,5.82,5.82,0,0,0-.85,3.15,5.73,5.73,0,0,0,.85,3.12,2.16,2.16,0,0,0,1.67,1.1,2.09,2.09,0,0,0,1.65-1.1A5.82,5.82,0,0,0,275.51,117.14Z" style="fill:#fff"></path><path d="M286.36,115.17a8.55,8.55,0,0,1-2.75,2.39,8.66,8.66,0,0,1-2.75-2.39c-1-1.28-.92-3.29.47-3.72s2.28,1.82,2.28,1.82.77-2.32,2.29-1.82S287.33,113.89,286.36,115.17Z" style="fill:#3C4A49"></path><path d="M280.2,123v-2.68a.25.25,0,0,1,.25-.25h.65a.87.87,0,0,1,.69,1.38,1,1,0,0,1-.52,1.8h-.82A.25.25,0,0,1,280.2,123Zm.5-1.7h.4a.37.37,0,0,0,.36-.37.36.36,0,0,0-.36-.36h-.4Zm0,1.45h.57a.48.48,0,0,0,.47-.48.46.46,0,0,0-.47-.46h-.57Z" style="fill:#fff"></path><path d="M285.64,120.32V123a.25.25,0,0,1-.5,0v-1.91l-.66.91a.26.26,0,0,1-.2.1h0a.28.28,0,0,1-.21-.1l-.65-.91V123a.25.25,0,0,1-.5,0v-2.68a.25.25,0,0,1,.25-.25h0a.25.25,0,0,1,.2.1l.9,1.26.91-1.26a.23.23,0,0,1,.2-.1h0A.25.25,0,0,1,285.64,120.32Z" style="fill:#fff"></path><path d="M287.58,122H287v1a.25.25,0,0,1-.5,0v-2.68a.25.25,0,0,1,.25-.25h.81a1,1,0,1,1,0,1.94Zm-.56-.5h.56a.47.47,0,1,0,0-.94H287Z" style="fill:#fff"></path></g></svg>